<?xml version="1.0" encoding="utf-8"?>
<!-- Generator: Adobe Illustrator 27.2.0, SVG Export Plug-In . SVG Version: 6.00 Build 0)  -->
<svg version="1.1" id="Camada_1" xmlns="http://www.w3.org/2000/svg" xmlns:xlink="http://www.w3.org/1999/xlink" x="0px" y="0px"
	 viewBox="0 0 841.89 261.06" style="enable-background:new 0 0 841.89 261.06;" xml:space="preserve">
<style type="text/css">
	.st0{fill:#FFFFFF;}
	.st1{fill:url(#SVGID_1_);}
	.st2{fill:url(#SVGID_00000165956965599071118720000012979314810207815608_);}
	.st3{fill:url(#SVGID_00000015331010818137341080000011474112596464050343_);}
	.st4{fill:url(#SVGID_00000085934601871142642590000005189034885354768283_);}
	.st5{fill:url(#SVGID_00000176023089267316170280000005935629104263243190_);}
	.st6{fill:url(#SVGID_00000132810984638331646710000000562943324277447048_);}
	.st7{fill:url(#SVGID_00000101799131739326604830000015254643468929628048_);}
	.st8{fill:url(#SVGID_00000170239043616089727650000009972015199870086804_);}
	.st9{fill:url(#SVGID_00000048497652549317386150000007210697322996578473_);}
	.st10{fill:url(#SVGID_00000121269057239836712940000005526937031215750056_);}
	.st11{fill:#1FB2FB;}
	.st12{fill:#444444;}
	.st13{fill:url(#SVGID_00000034788965530875926670000000732306406153942202_);}
	.st14{fill:url(#SVGID_00000074426000160684590020000001392807606624976802_);}
	.st15{fill:url(#SVGID_00000114045932727988451510000018126727627061469097_);}
	.st16{fill:url(#SVGID_00000095328162494262031330000003682189917751410111_);}
	.st17{fill:url(#SVGID_00000154399074130030302460000001024160089939022495_);}
	.st18{fill:url(#SVGID_00000031179009347560748030000001153990414912920484_);}
	.st19{fill:url(#SVGID_00000016058947967806255460000005603722893147751843_);}
	.st20{fill:url(#SVGID_00000091725540722035421130000005021061746436171451_);}
	.st21{fill:url(#SVGID_00000180330848097734941140000003530703595355281568_);}
	.st22{fill:url(#SVGID_00000127745392028685670810000017103047630311720341_);}
	.st23{fill:url(#SVGID_00000147927965112524651690000008574773040708245683_);}
	.st24{fill:url(#SVGID_00000101811932700471173840000000534416189840236427_);}
	.st25{fill:url(#SVGID_00000176724367947346617650000013368386876723252650_);}
	.st26{fill:url(#SVGID_00000103243958621843249460000011168302216047514289_);}
	.st27{fill:url(#SVGID_00000041254939088705020780000017026314826729047446_);}
	.st28{fill:url(#SVGID_00000040547473063261463260000015858380076018954147_);}
	.st29{fill:url(#SVGID_00000014617396200047235760000002669655720471489978_);}
	.st30{fill:url(#SVGID_00000135662767526910034130000003472282517998805155_);}
	.st31{fill:url(#SVGID_00000039839118408064865470000006891687720717108912_);}
	.st32{fill:url(#SVGID_00000007386383988792797460000003300951899099566492_);}
	.st33{fill:url(#SVGID_00000169545721526082494960000007693688955121946793_);}
	.st34{fill:url(#SVGID_00000152960675807913873090000011381733794180881594_);}
	.st35{fill:url(#SVGID_00000006688666391475820700000007159795430259484084_);}
	.st36{fill:url(#SVGID_00000085948198825947579180000003013882373171247747_);}
	.st37{fill:url(#SVGID_00000018204550556689016930000010899408027264359836_);}
	.st38{fill:url(#SVGID_00000121974745974964874940000005486441123660441744_);}
	.st39{fill:url(#SVGID_00000085964739863938731540000012973571713835087539_);}
	.st40{fill:url(#SVGID_00000054256864633320945210000003038860453246036415_);}
	.st41{fill:url(#SVGID_00000076569033909933294670000002070653660291550628_);}
	.st42{fill:url(#SVGID_00000057109066059185468460000000105430319760574398_);}
	.st43{fill:url(#SVGID_00000104664514597556359690000008578632255421641644_);}
	.st44{fill:#5C056B;}
	.st45{fill:#BF1EE0;}
	.st46{fill:#1ACDFA;}
	.st47{fill:#278CFD;}
	.st48{fill:#A50DBF;}
	.st49{fill:url(#SVGID_00000136412775524638316180000014057276291512057760_);}
	.st50{fill:url(#SVGID_00000150066913294652982920000004735199936558504095_);}
	.st51{fill:url(#SVGID_00000168097960214492119200000017748752688633157558_);}
	.st52{fill:url(#SVGID_00000131341118237690042760000005654419672610371477_);}
	.st53{fill:url(#SVGID_00000165916125878632364480000010110954690190484918_);}
	.st54{fill:url(#SVGID_00000092443879715281051330000012933290749698133141_);}
	.st55{fill:url(#SVGID_00000151523646213275639530000011906526733956947348_);}
	.st56{fill:url(#SVGID_00000081626053770819903730000013087984159865788050_);}
	.st57{fill:url(#SVGID_00000083047943329046746340000013295901628245733263_);}
	.st58{fill:url(#SVGID_00000108273138580750942500000004301410858510336186_);}
	.st59{fill:url(#SVGID_00000137095571472941686430000013301099957529542847_);}
	.st60{fill:url(#SVGID_00000152258487122686354700000006773492935929150872_);}
	.st61{fill:url(#SVGID_00000044166510066056202760000001033056151198703791_);}
	.st62{fill:url(#SVGID_00000028297066076868659150000009514952118336734608_);}
	.st63{fill:url(#SVGID_00000035516596173626413510000009281302139770681478_);}
	.st64{fill:url(#SVGID_00000018957468381835060380000003897496624949240209_);}
	.st65{fill:url(#SVGID_00000047028036316979850270000001696332601704847499_);}
	.st66{fill:url(#SVGID_00000103944447044931828490000014657044269014553490_);}
	.st67{fill:url(#SVGID_00000165914976925003472890000017732162997629635247_);}
	.st68{fill:url(#SVGID_00000067920691451515123500000000739411246910713277_);}
	.st69{fill:url(#SVGID_00000062876210094830205100000003139151545272589730_);}
	.st70{fill:url(#SVGID_00000018239472740698001300000002261385244037736078_);}
	.st71{fill:url(#SVGID_00000003794380271297789270000007318205374709638785_);}
	.st72{fill:url(#SVGID_00000158735166659428853020000004200577135407730328_);}
	.st73{fill:url(#SVGID_00000072262309630058321300000010272095538348530359_);}
	.st74{fill:url(#SVGID_00000139272412910108256860000003585995328186132922_);}
	.st75{fill:url(#SVGID_00000049194256044156624690000006043968612239821223_);}
	.st76{fill:url(#SVGID_00000019680404083968812170000000091008304174775457_);}
	.st77{fill:url(#SVGID_00000173861740529444567340000001073273077299400625_);}
	.st78{fill:url(#SVGID_00000080189632559887048380000017243625198601421991_);}
	.st79{fill:url(#SVGID_00000117677149917208065600000000719717000145471621_);}
	.st80{fill:url(#SVGID_00000094602130819637014120000008487067430124008376_);}
</style>
<g>
	<linearGradient id="SVGID_1_" gradientUnits="userSpaceOnUse" x1="198.0375" y1="81.3081" x2="237.383" y2="81.3081">
		<stop  offset="0" style="stop-color:#278CFD;stop-opacity:0"/>
		<stop  offset="0.276" style="stop-color:#278CFD"/>
		<stop  offset="1" style="stop-color:#A50DBF"/>
	</linearGradient>
	<path class="st1" d="M198.04,78.77h39.35c-2.57,1.13-4.81,2.89-6.52,5.07h-32.82V78.77z"/>
	
		<linearGradient id="SVGID_00000138550031503059234800000000481289136976355221_" gradientUnits="userSpaceOnUse" x1="251.0981" y1="79.7072" x2="267.5293" y2="79.7072">
		<stop  offset="0" style="stop-color:#278CFD;stop-opacity:0"/>
		<stop  offset="0.276" style="stop-color:#278CFD"/>
		<stop  offset="1" style="stop-color:#A50DBF"/>
	</linearGradient>
	<path style="fill:url(#SVGID_00000138550031503059234800000000481289136976355221_);" d="M267.53,78.77v1.85
		c-1.71,0-3.38,0-4.96,0.01c-3.13,0.01-5.97,0.01-8.25,0.02c-1-0.73-2.07-1.36-3.22-1.87H267.53z"/>
</g>
<linearGradient id="SVGID_00000026853630301475572300000003068811799573708175_" gradientUnits="userSpaceOnUse" x1="176.7957" y1="100.268" x2="229.4581" y2="100.268">
	<stop  offset="0" style="stop-color:#278CFD;stop-opacity:0"/>
	<stop  offset="0.276" style="stop-color:#278CFD"/>
	<stop  offset="1" style="stop-color:#A50DBF"/>
</linearGradient>
<path style="fill:url(#SVGID_00000026853630301475572300000003068811799573708175_);" d="M227.55,97.74c0.36,1.81,1,3.51,1.9,5.07
	H176.8v-5.07H227.55z"/>
<linearGradient id="SVGID_00000044883846616867675470000008845855058844950952_" gradientUnits="userSpaceOnUse" x1="198.0375" y1="120.5421" x2="267.4655" y2="120.5421">
	<stop  offset="0" style="stop-color:#278CFD;stop-opacity:0"/>
	<stop  offset="0.276" style="stop-color:#278CFD"/>
	<stop  offset="1" style="stop-color:#A50DBF"/>
</linearGradient>
<path style="fill:url(#SVGID_00000044883846616867675470000008845855058844950952_);" d="M267.47,123.08h-69.43v-5.07h67.91
	C266.02,119.85,266.57,121.58,267.47,123.08z"/>
<linearGradient id="SVGID_00000098906588437213813580000016873924368977380515_" gradientUnits="userSpaceOnUse" x1="198.0375" y1="160.4294" x2="267.5272" y2="160.4294">
	<stop  offset="0" style="stop-color:#278CFD;stop-opacity:0"/>
	<stop  offset="0.276" style="stop-color:#278CFD"/>
	<stop  offset="1" style="stop-color:#A50DBF"/>
</linearGradient>
<rect x="198.04" y="157.9" style="fill:url(#SVGID_00000098906588437213813580000016873924368977380515_);" width="69.49" height="5.07"/>
<linearGradient id="SVGID_00000012445115354548768720000009840206234615842689_" gradientUnits="userSpaceOnUse" x1="176.7981" y1="139.5045" x2="267.5272" y2="139.5045">
	<stop  offset="0" style="stop-color:#278CFD;stop-opacity:0"/>
	<stop  offset="0.276" style="stop-color:#278CFD"/>
	<stop  offset="1" style="stop-color:#A50DBF"/>
</linearGradient>
<rect x="176.8" y="136.97" style="fill:url(#SVGID_00000012445115354548768720000009840206234615842689_);" width="90.73" height="5.07"/>
<linearGradient id="SVGID_00000050627927755153016280000014633494624876572320_" gradientUnits="userSpaceOnUse" x1="226.1687" y1="61.456" x2="232.2776" y2="61.456">
	<stop  offset="0" style="stop-color:#1ACDFA"/>
	<stop  offset="1" style="stop-color:#2884FD"/>
</linearGradient>
<path style="fill:url(#SVGID_00000050627927755153016280000014633494624876572320_);" d="M232.28,61.33c-1.96,0.02-4,0.11-6.11,0.28
	C226.21,61.57,228.64,61.21,232.28,61.33z"/>
<linearGradient id="SVGID_00000159440280737256260930000015250373495451612827_" gradientUnits="userSpaceOnUse" x1="253.7384" y1="54.8372" x2="253.7384" y2="88.6934">
	<stop  offset="0" style="stop-color:#A50DBF"/>
	<stop  offset="0.1406" style="stop-color:#9E14C3"/>
	<stop  offset="0.349" style="stop-color:#8A28CC"/>
	<stop  offset="0.5997" style="stop-color:#6949DC"/>
	<stop  offset="0.8809" style="stop-color:#3C77F3"/>
	<stop  offset="1" style="stop-color:#278CFD"/>
</linearGradient>
<path style="fill:url(#SVGID_00000159440280737256260930000015250373495451612827_);" d="M232.29,61.33
	c23.05-0.22,35.93,9.49,42.89,19.27c-2.58,0.01-5.17,0.01-7.65,0.02c-1.71,0-3.38,0-4.96,0.01c-0.25-0.64-0.53-1.26-0.81-1.86
	C254.91,64.36,240.53,61.62,232.29,61.33z"/>
<linearGradient id="SVGID_00000005258062129680572220000003294447964462344856_" gradientUnits="userSpaceOnUse" x1="266.2023" y1="97.6288" x2="266.2023" y2="198.3574">
	<stop  offset="0.1667" style="stop-color:#A50DBF"/>
	<stop  offset="0.2839" style="stop-color:#9E14C3"/>
	<stop  offset="0.4576" style="stop-color:#8A28CC"/>
	<stop  offset="0.6665" style="stop-color:#6949DC"/>
	<stop  offset="0.9008" style="stop-color:#3C77F3"/>
	<stop  offset="1" style="stop-color:#278CFD"/>
</linearGradient>
<path style="fill:url(#SVGID_00000005258062129680572220000003294447964462344856_);" d="M300.37,141.65
	c-0.25,0.85-3.5,3.07-5.95,4.35c-3.74,1.72-2.76,4.48-2.39,5.34c3.62,3.98,2.21,5.46,1.53,6.13c-1.53,0.49-1.96,2.02-1.71,3
	c1.66,1.96,1.53,3.55-0.55,5.46c-2.09,1.96-1.23,3.37-0.8,5.09c5.26,11.76-1.97,14.22-5.89,14.46
	c-31.17,0.62-43.1,12.18-46.06,15.75c-0.44,0.53-1.26,0.58-1.73,0.08c-12.91-13.8,1.87-27.3,13.54-44.08
	c4.09-5.38,7.15-10.43,9.42-15.2c0.83-1.72,1.55-3.41,2.17-5.07c1.84-4.85,2.91-9.44,3.5-13.89c0.22-1.71,0.38-3.4,0.49-5.07
	c0-0.09,0.01-0.17,0.02-0.25c-0.01,0.08,0,0.17,0,0.25c0.07,1.85,0.61,3.58,1.51,5.07c1.86,3.11,5.27,5.2,9.16,5.2h11.98
	c3.69,5.25,8.09,7.52,10.23,9.14C301.1,139.81,300.61,141.04,300.37,141.65z"/>
<path class="st12" d="M303.33,88.5c-0.99-1.96-3.03-3.15-5.22-3.16c-4.24-0.02-11.92-0.02-19.98-0.01c-4.75,0-9.64,0.01-14.03,0.02
	c-4.58,0.01-8.62,0.02-11.44,0.02c-0.61-0.58-1.29-1.09-2.02-1.54c-1.86-1.14-4.05-1.79-6.39-1.79c-2.34,0-4.53,0.65-6.4,1.79
	c-3.54,2.17-5.92,6.07-5.92,10.52c0,1.17,0.16,2.3,0.48,3.37c0.54,1.92,1.55,3.66,2.88,5.07c2.25,2.39,5.42,3.88,8.95,3.88
	c3.47,0,6.62-1.45,8.86-3.78h11.6c0.38,0,0.75,0.03,1.11,0.1c2.76,0.52,4.85,2.94,4.85,5.85v8.75c0,3.29,2.67,5.95,5.96,5.95h20.96
	c2.48,0,4.68-1.52,5.57-3.83C305.6,113.35,309.23,100.16,303.33,88.5z M252.57,97.74c-0.95,2.35-2.87,4.2-5.26,5.07
	c-0.96,0.35-1.98,0.54-3.06,0.54c-1.08,0-2.1-0.19-3.06-0.54c-2.39-0.87-4.31-2.72-5.26-5.07c-0.43-1.04-0.66-2.18-0.66-3.37
	c0-4.95,4.02-8.98,8.98-8.98c4.95,0,8.98,4.02,8.98,8.98C253.23,95.55,253,96.69,252.57,97.74z M248.44,94.01
	c0,2.45-1.99,4.44-4.44,4.44s-4.44-1.99-4.44-4.44s1.99-4.44,4.44-4.44S248.44,91.56,248.44,94.01z"/>
<path class="st12" d="M390.52,113.77v32.13h-32.69c-8.91,0-16.57-3.13-22.99-9.38c-6.42-6.25-9.62-13.84-9.62-22.75
	c0-8.91,3.21-16.52,9.62-22.83c6.41-6.31,14.08-9.46,22.99-9.46c8.91,0,16.59,3.15,23.03,9.46
	C387.3,97.25,390.52,104.86,390.52,113.77z M376.83,133.1v-19.33c0-5.31-1.84-9.89-5.53-13.73c-3.69-3.84-8.19-5.76-13.51-5.76
	c-5.33,0-9.83,1.92-13.52,5.76c-3.69,3.84-5.53,8.41-5.53,13.73c0,5.31,1.84,9.86,5.53,13.65c3.69,3.78,8.19,5.68,13.52,5.68H376.83
	z"/>
<path class="st12" d="M413.75,145.9h-13.53V81.48c3.7,0,6.88,1.33,9.54,3.99c2.66,2.66,3.99,5.84,3.99,9.54v12.96h17.88
	c5.26,0,9.74-1.93,13.45-5.8c3.7-3.86,5.56-8.43,5.56-13.69v-6.04h13.53v6.04c0,5.15-1.17,10-3.5,14.53
	c-2.33,4.54-5.57,8.33-9.7,11.39c4.13,3.06,7.37,6.86,9.7,11.39c2.34,4.54,3.5,9.35,3.5,14.45v5.64h-13.53v-5.64
	c0-5.26-1.85-9.82-5.56-13.69c-3.7-3.86-8.19-5.8-13.45-5.8h-17.88V145.9z"/>
<linearGradient id="SVGID_00000050653412519060559430000005660223774866587273_" gradientUnits="userSpaceOnUse" x1="532.757" y1="63.9318" x2="542.5634" y2="137.4798">
	<stop  offset="0" style="stop-color:#A50DBF"/>
	<stop  offset="0.1402" style="stop-color:#9E14C3"/>
	<stop  offset="0.3481" style="stop-color:#8A28CC"/>
	<stop  offset="0.5981" style="stop-color:#6949DC"/>
	<stop  offset="0.8785" style="stop-color:#3C77F2"/>
	<stop  offset="0.943" style="stop-color:#3182F8"/>
	<stop  offset="1" style="stop-color:#278CFD"/>
</linearGradient>
<path style="fill:url(#SVGID_00000050653412519060559430000005660223774866587273_);" d="M487.97,96.87
	c-3.73,3.84-5.6,8.41-5.6,13.73c0,5.31,1.86,9.86,5.6,13.65c3.73,3.78,8.25,5.68,13.57,5.68h6.2c3.54,0,6.56,1.25,9.06,3.74
	c2.5,2.5,3.74,5.52,3.74,9.06h-19c-8.91,0-16.56-3.13-22.95-9.38c-6.39-6.25-9.58-13.84-9.58-22.75c0-8.91,3.19-16.52,9.58-22.83
	c6.39-6.31,14.04-9.46,22.95-9.46h19c0,3.54-1.25,6.56-3.74,9.06c-2.5,2.5-5.52,3.74-9.06,3.74h-6.2
	C496.22,91.12,491.7,93.04,487.97,96.87z M524.81,78.31v50.89c0,3.7,1.33,6.88,3.99,9.54c2.66,2.66,5.84,3.99,9.54,3.99V91.84
	c0-3.7-1.33-6.88-3.99-9.54C531.69,79.64,528.51,78.31,524.81,78.31z M540.19,79.28c0,3.54,1.25,6.56,3.74,9.06
	c2.5,2.5,5.52,3.74,9.06,3.74h12.88v37.12c0,3.7,1.33,6.88,3.99,9.54c2.66,2.66,5.84,3.99,9.54,3.99V92.08h12.88
	c3.54,0,6.56-1.25,9.06-3.74c2.5-2.5,3.74-5.52,3.74-9.06H540.19z"/>
<linearGradient id="SVGID_00000130609338082912156050000013921979195256525459_" gradientUnits="userSpaceOnUse" x1="458.5771" y1="161.2144" x2="458.5771" y2="187.2092">
	<stop  offset="0" style="stop-color:#A50DBF"/>
	<stop  offset="0.1402" style="stop-color:#9E14C3"/>
	<stop  offset="0.3481" style="stop-color:#8A28CC"/>
	<stop  offset="0.5981" style="stop-color:#6949DC"/>
	<stop  offset="0.8785" style="stop-color:#3C77F2"/>
	<stop  offset="0.943" style="stop-color:#3182F8"/>
	<stop  offset="1" style="stop-color:#278CFD"/>
</linearGradient>
<path style="fill:url(#SVGID_00000130609338082912156050000013921979195256525459_);" d="M333.35,166.22c0-2.76,2.11-4.75,4.95-4.75
	c1.5,0,2.8,0.54,3.65,1.54l-1.11,1.04c-0.67-0.73-1.5-1.08-2.47-1.08c-1.91,0-3.3,1.35-3.3,3.25c0,1.9,1.38,3.24,3.3,3.24
	c0.96,0,1.79-0.36,2.47-1.09l1.11,1.05c-0.86,1-2.15,1.54-3.67,1.54C335.46,170.97,333.35,168.98,333.35,166.22z M350.26,169.4v1.44
	h-6.93v-9.23h6.74v1.44h-5.02v2.4h4.46v1.41h-4.46v2.55H350.26z M360.12,161.6v9.23h-1.41l-5.09-6.25v6.25h-1.7v-9.23h1.41
	l5.09,6.25v-6.25H360.12z M364.21,163.05h-3.06v-1.45h7.83v1.45h-3.06v7.78h-1.71V163.05z M376.06,170.84l-1.89-2.7
	c-0.12,0.01-0.24,0.01-0.36,0.01h-2.08v2.69h-1.72v-9.23h3.8c2.43,0,3.93,1.24,3.93,3.28c0,1.4-0.71,2.43-1.97,2.92l2.12,3.03
	H376.06z M373.74,163.05h-2v3.68h2c1.5,0,2.28-0.69,2.28-1.85S375.24,163.05,373.74,163.05z M378.74,166.22
	c0-2.73,2.11-4.75,4.97-4.75c2.86,0,4.97,2,4.97,4.75c0,2.74-2.11,4.75-4.97,4.75C380.85,170.97,378.74,168.95,378.74,166.22z
	 M386.96,166.22c0-1.89-1.39-3.25-3.25-3.25c-1.86,0-3.24,1.36-3.24,3.25c0,1.89,1.38,3.24,3.24,3.24
	C385.57,169.46,386.96,168.11,386.96,166.22z M393.63,161.6h4.04c2.99,0,5.04,1.85,5.04,4.62c0,2.77-2.04,4.62-5.04,4.62h-4.04
	V161.6z M397.58,169.38c2.06,0,3.39-1.25,3.39-3.17c0-1.91-1.33-3.17-3.39-3.17h-2.24v6.33H397.58z M411.19,169.4v1.44h-6.93v-9.23
	H411v1.44h-5.03v2.4h4.46v1.41h-4.46v2.55H411.19z M415.56,166.22c0-2.76,2.11-4.75,4.95-4.75c1.5,0,2.8,0.54,3.65,1.54l-1.11,1.04
	c-0.67-0.73-1.5-1.08-2.47-1.08c-1.91,0-3.3,1.35-3.3,3.25c0,1.9,1.38,3.24,3.3,3.24c0.96,0,1.79-0.36,2.47-1.09l1.11,1.05
	c-0.86,1-2.15,1.54-3.67,1.54C417.67,170.97,415.56,168.98,415.56,166.22z M424.69,166.22c0-2.73,2.11-4.75,4.97-4.75
	c2.86,0,4.97,2,4.97,4.75c0,2.74-2.11,4.75-4.97,4.75C426.8,170.97,424.69,168.95,424.69,166.22z M432.91,166.22
	c0-1.89-1.39-3.25-3.25-3.25s-3.24,1.36-3.24,3.25c0,1.89,1.38,3.24,3.24,3.24S432.91,168.11,432.91,166.22z M444.68,170.84
	l-0.01-6.12l-3.03,5.06h-0.77l-3.03-4.99v6.04h-1.64v-9.23h1.41l3.67,6.12l3.6-6.12h1.41l0.01,9.23H444.68z M456.27,164.89
	c0,2.03-1.5,3.29-3.93,3.29h-2.08v2.66h-1.71v-9.23h3.8C454.76,161.6,456.27,162.84,456.27,164.89z M454.54,164.89
	c0-1.16-0.78-1.83-2.28-1.83h-2.01v3.67h2.01C453.76,166.72,454.54,166.05,454.54,164.89z M464.65,169.4v1.44h-6.93v-9.23h6.74v1.44
	h-5.02v2.4h4.46v1.41h-4.46v2.55H464.65z M468.17,163.05h-3.06v-1.45h7.83v1.45h-3.06v7.78h-1.71V163.05z M480.91,169.4v1.44h-6.93
	v-9.23h6.74v1.44h-5.03v2.4h4.46v1.41h-4.46v2.55H480.91z M476.21,160.85h-1.36l1.77-1.81h1.5l1.77,1.81h-1.36l-1.16-0.98
	L476.21,160.85z M490.76,161.6v9.23h-1.41l-5.09-6.25v6.25h-1.7v-9.23h1.41l5.09,6.25v-6.25H490.76z M492.32,166.22
	c0-2.76,2.11-4.75,4.95-4.75c1.5,0,2.8,0.54,3.65,1.54l-1.11,1.04c-0.67-0.73-1.5-1.08-2.47-1.08c-1.91,0-3.3,1.35-3.3,3.25
	c0,1.9,1.38,3.24,3.3,3.24c0.96,0,1.79-0.36,2.47-1.09l1.11,1.05c-0.86,1-2.15,1.54-3.67,1.54
	C494.43,170.97,492.32,168.98,492.32,166.22z M502.31,161.6h1.71v9.23h-1.71V161.6z M512.25,168.7h-4.62l-0.91,2.14h-1.77l4.16-9.23
	h1.69l4.17,9.23h-1.79L512.25,168.7z M511.68,167.35l-1.74-4.04l-1.73,4.04H511.68z M526.19,169.4v1.44h-6.93v-9.23H526v1.44h-5.03
	v2.4h4.46v1.41h-4.46v2.55H526.19z M536.32,170.84l-0.01-6.12l-3.03,5.06h-0.77l-3.03-4.99v6.04h-1.64v-9.23h1.41l3.67,6.12
	l3.6-6.12h1.41l0.01,9.23H536.32z M548.39,168.33c0,1.58-1.24,2.51-3.61,2.51h-4.59v-9.23h4.33c2.22,0,3.4,0.94,3.4,2.4
	c0,0.95-0.48,1.65-1.19,2.03C547.71,166.35,548.39,167.13,548.39,168.33z M541.9,162.95v2.55h2.43c1.19,0,1.86-0.42,1.86-1.27
	c0-0.86-0.67-1.28-1.86-1.28H541.9z M546.66,168.16c0-0.92-0.7-1.33-1.99-1.33h-2.77v2.66h2.77
	C545.96,169.49,546.66,169.08,546.66,168.16z M556,170.84l-1.89-2.7c-0.12,0.01-0.24,0.01-0.36,0.01h-2.08v2.69h-1.72v-9.23h3.8
	c2.43,0,3.93,1.24,3.93,3.28c0,1.4-0.71,2.43-1.97,2.92l2.12,3.03H556z M553.68,163.05h-2v3.68h2c1.5,0,2.28-0.69,2.28-1.85
	S555.18,163.05,553.68,163.05z M565.33,168.7h-4.62l-0.91,2.14h-1.77l4.16-9.23h1.69l4.17,9.23h-1.79L565.33,168.7z M564.76,167.35
	l-1.74-4.04l-1.73,4.04H564.76z M576.69,164.89c0,2.03-1.5,3.29-3.93,3.29h-2.08v2.66h-1.72v-9.23h3.8
	C575.19,161.6,576.69,162.84,576.69,164.89z M574.96,164.89c0-1.16-0.78-1.83-2.28-1.83h-2v3.67h2
	C574.19,166.72,574.96,166.05,574.96,164.89z M578.15,161.6h1.71v9.23h-1.71V161.6z M582.09,161.6h1.72v9.23h-1.72V161.6z
	 M341.67,185.23v1.44h-6.93v-9.23h6.74v1.44h-5.02v2.4h4.46v1.41h-4.46v2.55H341.67z M351.8,186.67l-0.01-6.12l-3.03,5.06h-0.77
	l-3.03-4.99v6.04h-1.64v-9.23h1.41l3.67,6.12l3.6-6.12h1.41l0.01,9.23H351.8z M360.91,178.89h-3.06v-1.45h7.83v1.45h-3.06v7.78
	h-1.71V178.89z M373.64,185.23v1.44h-6.93v-9.23h6.74v1.44h-5.02v2.4h4.46v1.41h-4.46v2.55H373.64z M374.6,182.06
	c0-2.76,2.11-4.75,4.95-4.75c1.5,0,2.8,0.54,3.65,1.54l-1.11,1.04c-0.67-0.73-1.5-1.08-2.47-1.08c-1.91,0-3.3,1.35-3.3,3.25
	c0,1.9,1.38,3.24,3.3,3.24c0.96,0,1.79-0.36,2.47-1.09l1.11,1.05c-0.86,1-2.15,1.54-3.67,1.54
	C376.71,186.8,374.6,184.81,374.6,182.06z M392.79,177.44v9.23h-1.41l-5.09-6.25v6.25h-1.7v-9.23H386l5.09,6.25v-6.25H392.79z
	 M394.35,182.06c0-2.73,2.11-4.75,4.97-4.75c2.86,0,4.97,2,4.97,4.75c0,2.74-2.11,4.75-4.97,4.75
	C396.46,186.8,394.35,184.79,394.35,182.06z M402.57,182.06c0-1.89-1.39-3.25-3.25-3.25c-1.86,0-3.24,1.36-3.24,3.25
	c0,1.89,1.38,3.24,3.24,3.24C401.18,185.3,402.57,183.94,402.57,182.06z M405.86,177.44h1.72v7.78h4.83v1.45h-6.54V177.44z
	 M412.67,182.06c0-2.73,2.11-4.75,4.97-4.75c2.86,0,4.97,2,4.97,4.75c0,2.74-2.11,4.75-4.97,4.75
	C414.78,186.8,412.67,184.79,412.67,182.06z M420.89,182.06c0-1.89-1.39-3.25-3.25-3.25c-1.86,0-3.24,1.36-3.24,3.25
	c0,1.89,1.38,3.24,3.24,3.24C419.5,185.3,420.89,183.94,420.89,182.06z M430.48,181.95h1.62v3.68c-0.96,0.78-2.31,1.17-3.61,1.17
	c-2.86,0-4.97-1.99-4.97-4.75c0-2.76,2.11-4.75,5-4.75c1.54,0,2.84,0.51,3.71,1.5l-1.08,1.06c-0.73-0.73-1.56-1.06-2.55-1.06
	c-1.97,0-3.35,1.33-3.35,3.25c0,1.87,1.38,3.24,3.34,3.24c0.66,0,1.31-0.13,1.9-0.48V181.95z M434.1,177.44h1.72v9.23h-1.72V177.44z
	 M444.03,184.53h-4.62l-0.91,2.14h-1.77l4.16-9.23h1.69l4.17,9.23h-1.79L444.03,184.53z M443.46,183.19l-1.74-4.04l-1.73,4.04
	H443.46z M446.89,185.7l0.59-1.33c0.74,0.59,1.91,1.02,3.05,1.02c1.44,0,2.04-0.51,2.04-1.2c0-1.99-5.49-0.69-5.49-4.12
	c0-1.49,1.19-2.76,3.72-2.76c1.11,0,2.27,0.29,3.07,0.82l-0.54,1.33c-0.83-0.49-1.74-0.73-2.55-0.73c-1.42,0-2,0.55-2,1.25
	c0,1.96,5.47,0.69,5.47,4.08c0,1.48-1.2,2.74-3.73,2.74C449.09,186.8,447.65,186.36,446.89,185.7z M459.08,177.44h1.71v9.23h-1.71
	V177.44z M471.51,186.67l-0.01-6.12l-3.03,5.06h-0.77l-3.03-4.99v6.04h-1.64v-9.23h1.41l3.67,6.12l3.6-6.12h1.41l0.01,9.23H471.51z
	 M482.29,185.23v1.44h-6.93v-9.23h6.74v1.44h-5.03v2.4h4.46v1.41h-4.46v2.55H482.29z M489.98,186.67l-1.89-2.7
	c-0.12,0.01-0.24,0.01-0.36,0.01h-2.08v2.69h-1.71v-9.23h3.8c2.43,0,3.93,1.24,3.93,3.28c0,1.4-0.71,2.43-1.97,2.92l2.12,3.03
	H489.98z M487.66,178.89h-2.01v3.68h2.01c1.5,0,2.28-0.69,2.28-1.85S489.16,178.89,487.66,178.89z M492.55,185.7l0.59-1.33
	c0.74,0.59,1.91,1.02,3.05,1.02c1.44,0,2.04-0.51,2.04-1.2c0-1.99-5.49-0.69-5.49-4.12c0-1.49,1.19-2.76,3.72-2.76
	c1.11,0,2.27,0.29,3.07,0.82l-0.54,1.33c-0.83-0.49-1.74-0.73-2.55-0.73c-1.42,0-2,0.55-2,1.25c0,1.96,5.47,0.69,5.47,4.08
	c0,1.48-1.2,2.74-3.73,2.74C494.75,186.8,493.31,186.36,492.55,185.7z M501.36,177.44h1.71v9.23h-1.71V177.44z M513.68,177.44
	l-4.02,9.23h-1.69l-4.04-9.23h1.86l3.07,7.12l3.1-7.12H513.68z M520.1,184.53h-4.62l-0.91,2.14h-1.77l4.16-9.23h1.69l4.17,9.23
	h-1.79L520.1,184.53z M519.53,183.19l-1.74-4.04l-1.73,4.04H519.53z M522.95,185.7l0.59-1.33c0.74,0.59,1.91,1.02,3.05,1.02
	c1.44,0,2.04-0.51,2.04-1.2c0-1.99-5.49-0.69-5.49-4.12c0-1.49,1.19-2.76,3.72-2.76c1.11,0,2.27,0.29,3.07,0.82l-0.54,1.33
	c-0.83-0.49-1.74-0.73-2.55-0.73c-1.42,0-2,0.55-2,1.25c0,1.96,5.47,0.69,5.47,4.08c0,1.48-1.2,2.74-3.73,2.74
	C525.15,186.8,523.72,186.36,522.95,185.7z"/>
</svg>
