<?xml version="1.0" encoding="utf-8"?>
<!-- Generator: Adobe Illustrator 27.2.0, SVG Export Plug-In . SVG Version: 6.00 Build 0)  -->
<svg version="1.1" id="Camada_1" xmlns="http://www.w3.org/2000/svg" xmlns:xlink="http://www.w3.org/1999/xlink" x="0px" y="0px"
	 viewBox="0 0 841.89 261.06" style="enable-background:new 0 0 841.89 261.06;" xml:space="preserve">
<style type="text/css">
	.st0{fill:#FFFFFF;}
	.st1{fill:url(#SVGID_1_);}
	.st2{fill:url(#SVGID_00000027600136965168435460000014423160277430683833_);}
	.st3{fill:url(#SVGID_00000134242304156121016250000004417436486189767349_);}
	.st4{fill:url(#SVGID_00000124159191008237201450000004476313249074556817_);}
	.st5{fill:url(#SVGID_00000052812390414733826370000001805039032047633322_);}
	.st6{fill:url(#SVGID_00000100380606329879647870000006798402207607732149_);}
	.st7{fill:url(#SVGID_00000017490217123402299380000006216314083838251152_);}
	.st8{fill:url(#SVGID_00000180354105644057265860000017505251066976938163_);}
	.st9{fill:url(#SVGID_00000178187405658353220230000016793643977239078025_);}
	.st10{fill:url(#SVGID_00000049214014700414585660000012981754625632901030_);}
	.st11{fill:#1FB2FB;}
	.st12{fill:#444444;}
	.st13{fill:url(#SVGID_00000051381153682000656940000008096224522344927150_);}
	.st14{fill:url(#SVGID_00000124164059519216029950000014484665812798333877_);}
	.st15{fill:url(#SVGID_00000096762015626867829320000008550231927471817603_);}
	.st16{fill:url(#SVGID_00000076583812628730345430000006431513470811585469_);}
	.st17{fill:url(#SVGID_00000104677113969442502640000007360738793076144273_);}
	.st18{fill:url(#SVGID_00000079464796500050244680000001101548174032328349_);}
	.st19{fill:url(#SVGID_00000178173693155849981540000001218842141979090335_);}
	.st20{fill:url(#SVGID_00000021811843075570412320000014057647831171742091_);}
	.st21{fill:url(#SVGID_00000096041673387329681860000002890584953514568355_);}
	.st22{fill:url(#SVGID_00000116211696864784145560000015846544866553397177_);}
	.st23{fill:url(#SVGID_00000005954738756699911800000014956882556151944870_);}
	.st24{fill:url(#SVGID_00000141420060077613204410000012902391438920422319_);}
	.st25{fill:url(#SVGID_00000163052454573099266330000011009104777063201707_);}
	.st26{fill:url(#SVGID_00000131355208948497196410000006774289621498897050_);}
	.st27{fill:url(#SVGID_00000143575575639653602750000011908013365853852850_);}
	.st28{fill:url(#SVGID_00000007392450357027203800000012281395089749492895_);}
	.st29{fill:url(#SVGID_00000174571150712292349830000005631875911011934122_);}
	.st30{fill:url(#SVGID_00000174594968890522597610000018437241447190372766_);}
	.st31{fill:url(#SVGID_00000014607597264669077160000012104285579840028324_);}
	.st32{fill:url(#SVGID_00000143593730862261873990000016976188623800254910_);}
	.st33{fill:url(#SVGID_00000049932631686861215230000011999251347636638141_);}
	.st34{fill:url(#SVGID_00000067197308002845418640000016004501651804589473_);}
	.st35{fill:url(#SVGID_00000127744465740595614570000000069141307212377750_);}
	.st36{fill:url(#SVGID_00000066499116774116969140000008698970799493748661_);}
	.st37{fill:url(#SVGID_00000101078623000775958310000005853751621204822432_);}
	.st38{fill:url(#SVGID_00000081647459338504392490000011780370983413907381_);}
	.st39{fill:url(#SVGID_00000024692059559562539820000018385702754178845609_);}
	.st40{fill:url(#SVGID_00000139277781259049791550000001706474377566440888_);}
	.st41{fill:url(#SVGID_00000119086596482530476470000005638953975542766491_);}
	.st42{fill:url(#SVGID_00000131347091953733518190000014175709606675804840_);}
	.st43{fill:url(#SVGID_00000168083024546993866980000000630637816127233967_);}
	.st44{fill:#5C056B;}
	.st45{fill:#BF1EE0;}
	.st46{fill:#1ACDFA;}
	.st47{fill:#278CFD;}
	.st48{fill:#A50DBF;}
	.st49{fill:url(#SVGID_00000181057771622444506230000003352037773456579465_);}
	.st50{fill:url(#SVGID_00000036938343693819745990000003571024912273663895_);}
	.st51{fill:url(#SVGID_00000108273702066305039940000014035197573445355930_);}
	.st52{fill:url(#SVGID_00000019680291584129585100000014492849240283888532_);}
	.st53{fill:url(#SVGID_00000173862156284608025340000009489224593411257271_);}
	.st54{fill:url(#SVGID_00000107565885141267015250000000460107675086803640_);}
	.st55{fill:url(#SVGID_00000067196475383393943800000015815341222456846013_);}
	.st56{fill:url(#SVGID_00000044154242206122730340000016990684463467250342_);}
	.st57{fill:url(#SVGID_00000109718944106467397900000012051819723639929243_);}
	.st58{fill:url(#SVGID_00000111166550614543660390000004330351159104229798_);}
	.st59{fill:url(#SVGID_00000023266574670529702580000001992496879244176293_);}
	.st60{fill:url(#SVGID_00000177480194896526214010000015772637993151558812_);}
	.st61{fill:url(#SVGID_00000090263730012841959160000014799588333996036765_);}
	.st62{fill:url(#SVGID_00000041253604573004881300000005679178497431157430_);}
	.st63{fill:url(#SVGID_00000173153596705157535930000003904725622719872913_);}
	.st64{fill:url(#SVGID_00000093168262568823226270000010698901482250605455_);}
	.st65{fill:url(#SVGID_00000163762438366785209170000002645506670575181960_);}
	.st66{fill:url(#SVGID_00000161606079724880151280000000894529186451726477_);}
	.st67{fill:url(#SVGID_00000057121366177683590840000014052882109841314699_);}
	.st68{fill:url(#SVGID_00000139252498778325959470000001484379913358899111_);}
	.st69{fill:url(#SVGID_00000103229285602368726860000013699513086578011039_);}
	.st70{fill:url(#SVGID_00000039831015067128556570000013157366371938743965_);}
	.st71{fill:url(#SVGID_00000166646329698136431640000004647942384775484047_);}
	.st72{fill:url(#SVGID_00000097502288778062636950000004638603516978006685_);}
	.st73{fill:url(#SVGID_00000003086296228979118350000005468573290639881352_);}
	.st74{fill:url(#SVGID_00000177470020028410566980000013694016513939655870_);}
	.st75{fill:url(#SVGID_00000064311679825844286510000000243590128940127157_);}
	.st76{fill:url(#SVGID_00000127039061911795705300000007951797262428672149_);}
	.st77{fill:url(#SVGID_00000150063356041091274930000015921533587222302908_);}
	.st78{fill:url(#SVGID_00000099638517395828095850000000082689894112108470_);}
	.st79{fill:url(#SVGID_00000138564866100017635090000012008249222795846282_);}
	.st80{fill:url(#SVGID_00000023971140289595730440000016223142095513063826_);}
</style>
<g>
	<g>
		<linearGradient id="SVGID_1_" gradientUnits="userSpaceOnUse" x1="228.0398" y1="80.3442" x2="267.3853" y2="80.3442">
			<stop  offset="0" style="stop-color:#278CFD;stop-opacity:0"/>
			<stop  offset="0.276" style="stop-color:#278CFD"/>
			<stop  offset="1" style="stop-color:#A50DBF"/>
		</linearGradient>
		<path class="st1" d="M228.04,77.81h39.35c-2.57,1.13-4.81,2.89-6.52,5.07h-32.82V77.81z"/>
		
			<linearGradient id="SVGID_00000000198356595637938090000001670918802302761144_" gradientUnits="userSpaceOnUse" x1="281.1005" y1="78.7433" x2="297.5316" y2="78.7433">
			<stop  offset="0" style="stop-color:#278CFD;stop-opacity:0"/>
			<stop  offset="0.276" style="stop-color:#278CFD"/>
			<stop  offset="1" style="stop-color:#A50DBF"/>
		</linearGradient>
		<path style="fill:url(#SVGID_00000000198356595637938090000001670918802302761144_);" d="M297.53,77.81v1.85
			c-1.71,0-3.38,0-4.96,0.01c-3.13,0.01-5.97,0.01-8.25,0.02c-1-0.73-2.07-1.36-3.22-1.87H297.53z"/>
	</g>
	
		<linearGradient id="SVGID_00000135682945392027431140000006047215079049591989_" gradientUnits="userSpaceOnUse" x1="206.7981" y1="99.3041" x2="259.4605" y2="99.3041">
		<stop  offset="0" style="stop-color:#278CFD;stop-opacity:0"/>
		<stop  offset="0.276" style="stop-color:#278CFD"/>
		<stop  offset="1" style="stop-color:#A50DBF"/>
	</linearGradient>
	<path style="fill:url(#SVGID_00000135682945392027431140000006047215079049591989_);" d="M257.56,96.77c0.36,1.81,1,3.51,1.9,5.07
		H206.8v-5.07H257.56z"/>
	
		<linearGradient id="SVGID_00000104670131100241575830000012080740741820695480_" gradientUnits="userSpaceOnUse" x1="228.0398" y1="119.5781" x2="297.4679" y2="119.5781">
		<stop  offset="0" style="stop-color:#278CFD;stop-opacity:0"/>
		<stop  offset="0.276" style="stop-color:#278CFD"/>
		<stop  offset="1" style="stop-color:#A50DBF"/>
	</linearGradient>
	<path style="fill:url(#SVGID_00000104670131100241575830000012080740741820695480_);" d="M297.47,122.11h-69.43v-5.07h67.91
		C296.03,118.89,296.57,120.62,297.47,122.11z"/>
	
		<linearGradient id="SVGID_00000098202840502107063770000017658500876614898564_" gradientUnits="userSpaceOnUse" x1="228.0398" y1="159.4655" x2="297.5295" y2="159.4655">
		<stop  offset="0" style="stop-color:#278CFD;stop-opacity:0"/>
		<stop  offset="0.276" style="stop-color:#278CFD"/>
		<stop  offset="1" style="stop-color:#A50DBF"/>
	</linearGradient>
	
		<rect x="228.04" y="156.93" style="fill:url(#SVGID_00000098202840502107063770000017658500876614898564_);" width="69.49" height="5.07"/>
	
		<linearGradient id="SVGID_00000009569204439658321410000018286355997759654811_" gradientUnits="userSpaceOnUse" x1="206.8005" y1="138.5405" x2="297.5295" y2="138.5405">
		<stop  offset="0" style="stop-color:#278CFD;stop-opacity:0"/>
		<stop  offset="0.276" style="stop-color:#278CFD"/>
		<stop  offset="1" style="stop-color:#A50DBF"/>
	</linearGradient>
	
		<rect x="206.8" y="136.01" style="fill:url(#SVGID_00000009569204439658321410000018286355997759654811_);" width="90.73" height="5.07"/>
	
		<linearGradient id="SVGID_00000054974555756830965640000010413308716122110354_" gradientUnits="userSpaceOnUse" x1="283.7408" y1="53.8733" x2="283.7408" y2="87.7294">
		<stop  offset="0" style="stop-color:#A50DBF"/>
		<stop  offset="0.1406" style="stop-color:#9E14C3"/>
		<stop  offset="0.349" style="stop-color:#8A28CC"/>
		<stop  offset="0.5997" style="stop-color:#6949DC"/>
		<stop  offset="0.8809" style="stop-color:#3C77F3"/>
		<stop  offset="1" style="stop-color:#278CFD"/>
	</linearGradient>
	<path style="fill:url(#SVGID_00000054974555756830965640000010413308716122110354_);" d="M262.3,60.36
		c23.05-0.22,35.93,9.49,42.89,19.27c-2.58,0.01-5.17,0.01-7.65,0.02c-1.71,0-3.38,0-4.96,0.01c-0.25-0.64-0.53-1.26-0.81-1.86
		C284.92,63.39,270.53,60.65,262.3,60.36z"/>
	
		<linearGradient id="SVGID_00000053533099232012670550000011170345346444357011_" gradientUnits="userSpaceOnUse" x1="296.2046" y1="96.6649" x2="296.2046" y2="197.3935">
		<stop  offset="0.1667" style="stop-color:#A50DBF"/>
		<stop  offset="0.2839" style="stop-color:#9E14C3"/>
		<stop  offset="0.4576" style="stop-color:#8A28CC"/>
		<stop  offset="0.6665" style="stop-color:#6949DC"/>
		<stop  offset="0.9008" style="stop-color:#3C77F3"/>
		<stop  offset="1" style="stop-color:#278CFD"/>
	</linearGradient>
	<path style="fill:url(#SVGID_00000053533099232012670550000011170345346444357011_);" d="M330.37,140.69
		c-0.25,0.85-3.5,3.07-5.95,4.35c-3.74,1.72-2.76,4.48-2.39,5.34c3.62,3.98,2.21,5.46,1.53,6.13c-1.53,0.49-1.96,2.02-1.71,3
		c1.66,1.96,1.53,3.55-0.55,5.46c-2.09,1.96-1.23,3.37-0.8,5.09c5.26,11.76-1.97,14.22-5.89,14.46
		c-31.17,0.62-43.1,12.18-46.06,15.75c-0.44,0.53-1.26,0.58-1.73,0.08c-12.91-13.8,1.87-27.3,13.54-44.08
		c4.09-5.38,7.15-10.43,9.42-15.2c0.83-1.72,1.55-3.41,2.17-5.07c1.84-4.85,2.91-9.44,3.5-13.89c0.22-1.71,0.38-3.4,0.49-5.07
		c0-0.09,0.01-0.17,0.02-0.25c-0.01,0.08,0,0.17,0,0.25c0.07,1.85,0.61,3.58,1.51,5.07c1.86,3.11,5.27,5.2,9.16,5.2h11.98
		c3.69,5.25,8.09,7.52,10.23,9.14C331.1,138.85,330.62,140.08,330.37,140.69z"/>
	<path class="st0" d="M333.33,87.54c-0.99-1.96-3.03-3.15-5.22-3.16c-4.24-0.02-11.92-0.02-19.98-0.01c-4.75,0-9.64,0.01-14.03,0.02
		c-4.58,0.01-8.62,0.02-11.44,0.02c-0.61-0.58-1.29-1.09-2.02-1.54c-1.86-1.14-4.05-1.79-6.39-1.79c-2.34,0-4.53,0.65-6.4,1.79
		c-3.54,2.17-5.92,6.07-5.92,10.52c0,1.17,0.16,2.3,0.48,3.37c0.54,1.92,1.55,3.66,2.88,5.07c2.25,2.39,5.42,3.88,8.95,3.88
		c3.47,0,6.62-1.45,8.86-3.78h11.6c0.38,0,0.75,0.03,1.11,0.1c2.76,0.52,4.85,2.94,4.85,5.85v8.75c0,3.29,2.67,5.95,5.96,5.95h20.96
		c2.48,0,4.68-1.52,5.57-3.83C335.6,112.39,339.23,99.19,333.33,87.54z M282.57,96.77c-0.95,2.35-2.87,4.2-5.26,5.07
		c-0.96,0.35-1.98,0.54-3.06,0.54c-1.08,0-2.1-0.19-3.06-0.54c-2.39-0.87-4.31-2.72-5.26-5.07c-0.43-1.04-0.66-2.18-0.66-3.37
		c0-4.95,4.02-8.98,8.98-8.98c4.95,0,8.98,4.02,8.98,8.98C283.23,94.59,283,95.73,282.57,96.77z M278.45,93.05
		c0,2.45-1.99,4.44-4.44,4.44s-4.44-1.99-4.44-4.44c0-2.45,1.99-4.44,4.44-4.44S278.45,90.6,278.45,93.05z"/>
	<path class="st0" d="M420.52,112.81v32.13h-32.69c-8.91,0-16.57-3.13-22.99-9.38c-6.42-6.25-9.62-13.84-9.62-22.75
		c0-8.91,3.21-16.52,9.62-22.83c6.41-6.31,14.08-9.46,22.99-9.46c8.91,0,16.59,3.15,23.03,9.46
		C417.3,96.29,420.52,103.9,420.52,112.81z M406.83,132.14v-19.33c0-5.31-1.84-9.89-5.53-13.73c-3.69-3.84-8.19-5.76-13.51-5.76
		c-5.33,0-9.83,1.92-13.52,5.76c-3.69,3.84-5.53,8.41-5.53,13.73c0,5.31,1.84,9.86,5.53,13.65c3.69,3.78,8.19,5.68,13.52,5.68
		H406.83z"/>
	<path class="st0" d="M443.75,144.94h-13.53V80.52c3.7,0,6.88,1.33,9.54,3.99c2.66,2.66,3.99,5.84,3.99,9.54v12.96h17.88
		c5.26,0,9.74-1.93,13.45-5.8c3.7-3.86,5.56-8.43,5.56-13.69v-6.04h13.53v6.04c0,5.15-1.17,10-3.5,14.53
		c-2.33,4.54-5.57,8.33-9.7,11.39c4.13,3.06,7.37,6.86,9.7,11.39c2.34,4.54,3.5,9.35,3.5,14.45v5.64h-13.53v-5.64
		c0-5.26-1.85-9.82-5.56-13.69c-3.7-3.86-8.19-5.8-13.45-5.8h-17.88V144.94z"/>
	
		<linearGradient id="SVGID_00000089575391746836467300000008192684755799745196_" gradientUnits="userSpaceOnUse" x1="562.7593" y1="62.9679" x2="572.5658" y2="136.5159">
		<stop  offset="0" style="stop-color:#A50DBF"/>
		<stop  offset="0.1402" style="stop-color:#9E14C3"/>
		<stop  offset="0.3481" style="stop-color:#8A28CC"/>
		<stop  offset="0.5981" style="stop-color:#6949DC"/>
		<stop  offset="0.8785" style="stop-color:#3C77F2"/>
		<stop  offset="0.943" style="stop-color:#3182F8"/>
		<stop  offset="1" style="stop-color:#278CFD"/>
	</linearGradient>
	<path style="fill:url(#SVGID_00000089575391746836467300000008192684755799745196_);" d="M517.97,95.91
		c-3.73,3.84-5.6,8.41-5.6,13.73c0,5.31,1.86,9.86,5.6,13.65c3.73,3.78,8.25,5.68,13.57,5.68h6.2c3.54,0,6.56,1.25,9.06,3.74
		c2.5,2.5,3.74,5.52,3.74,9.06h-19c-8.91,0-16.56-3.13-22.95-9.38c-6.39-6.25-9.58-13.84-9.58-22.75c0-8.91,3.19-16.52,9.58-22.83
		c6.39-6.31,14.04-9.46,22.95-9.46h19c0,3.54-1.25,6.56-3.74,9.06c-2.5,2.5-5.52,3.74-9.06,3.74h-6.2
		C526.23,90.15,521.7,92.07,517.97,95.91z M554.81,77.35v50.89c0,3.7,1.33,6.88,3.99,9.54c2.66,2.66,5.84,3.99,9.54,3.99V90.88
		c0-3.7-1.33-6.88-3.99-9.54C561.7,78.68,558.52,77.35,554.81,77.35z M570.19,78.31c0,3.54,1.25,6.56,3.74,9.06
		c2.5,2.5,5.52,3.74,9.06,3.74h12.88v37.12c0,3.7,1.33,6.88,3.99,9.54c2.66,2.66,5.84,3.99,9.54,3.99V91.12h12.88
		c3.54,0,6.56-1.25,9.06-3.74c2.5-2.5,3.74-5.52,3.74-9.06H570.19z"/>
	
		<linearGradient id="SVGID_00000065043705395978555660000014652101017293810108_" gradientUnits="userSpaceOnUse" x1="488.5795" y1="160.2504" x2="488.5795" y2="186.2453">
		<stop  offset="0" style="stop-color:#A50DBF"/>
		<stop  offset="0.1402" style="stop-color:#9E14C3"/>
		<stop  offset="0.3481" style="stop-color:#8A28CC"/>
		<stop  offset="0.5981" style="stop-color:#6949DC"/>
		<stop  offset="0.8785" style="stop-color:#3C77F2"/>
		<stop  offset="0.943" style="stop-color:#3182F8"/>
		<stop  offset="1" style="stop-color:#278CFD"/>
	</linearGradient>
	<path style="fill:url(#SVGID_00000065043705395978555660000014652101017293810108_);" d="M363.35,165.26
		c0-2.76,2.11-4.75,4.95-4.75c1.5,0,2.8,0.54,3.65,1.54l-1.11,1.04c-0.67-0.73-1.5-1.08-2.47-1.08c-1.91,0-3.3,1.35-3.3,3.25
		c0,1.9,1.38,3.24,3.3,3.24c0.96,0,1.79-0.36,2.47-1.09l1.11,1.05c-0.86,1-2.15,1.54-3.67,1.54
		C365.46,170,363.35,168.01,363.35,165.26z M380.26,168.43v1.44h-6.93v-9.23h6.74v1.44h-5.02v2.4h4.46v1.41h-4.46v2.55H380.26z
		 M390.12,160.64v9.23h-1.41l-5.09-6.25v6.25h-1.7v-9.23h1.41l5.09,6.25v-6.25H390.12z M394.21,162.09h-3.06v-1.45h7.83v1.45h-3.06
		v7.78h-1.71V162.09z M406.06,169.87l-1.89-2.7c-0.12,0.01-0.24,0.01-0.36,0.01h-2.08v2.69h-1.72v-9.23h3.8
		c2.43,0,3.93,1.24,3.93,3.28c0,1.4-0.71,2.43-1.97,2.92l2.12,3.03H406.06z M403.74,162.09h-2v3.68h2c1.5,0,2.28-0.69,2.28-1.85
		S405.24,162.09,403.74,162.09z M408.74,165.26c0-2.73,2.11-4.75,4.97-4.75c2.86,0,4.97,2,4.97,4.75c0,2.74-2.11,4.75-4.97,4.75
		C410.85,170,408.74,167.99,408.74,165.26z M416.96,165.26c0-1.89-1.39-3.25-3.25-3.25c-1.86,0-3.24,1.36-3.24,3.25
		c0,1.89,1.38,3.24,3.24,3.24C415.58,168.5,416.96,167.14,416.96,165.26z M423.63,160.64h4.04c2.99,0,5.04,1.85,5.04,4.62
		c0,2.77-2.04,4.62-5.04,4.62h-4.04V160.64z M427.59,168.42c2.06,0,3.39-1.25,3.39-3.17c0-1.91-1.33-3.17-3.39-3.17h-2.24v6.33
		H427.59z M441.19,168.43v1.44h-6.93v-9.23h6.74v1.44h-5.03v2.4h4.46v1.41h-4.46v2.55H441.19z M445.56,165.26
		c0-2.76,2.11-4.75,4.95-4.75c1.5,0,2.8,0.54,3.65,1.54l-1.11,1.04c-0.67-0.73-1.5-1.08-2.47-1.08c-1.91,0-3.3,1.35-3.3,3.25
		c0,1.9,1.38,3.24,3.3,3.24c0.96,0,1.79-0.36,2.47-1.09l1.11,1.05c-0.86,1-2.15,1.54-3.67,1.54
		C447.67,170,445.56,168.01,445.56,165.26z M454.69,165.26c0-2.73,2.11-4.75,4.97-4.75c2.86,0,4.97,2,4.97,4.75
		c0,2.74-2.11,4.75-4.97,4.75C456.8,170,454.69,167.99,454.69,165.26z M462.91,165.26c0-1.89-1.39-3.25-3.25-3.25
		c-1.86,0-3.24,1.36-3.24,3.25c0,1.89,1.38,3.24,3.24,3.24C461.53,168.5,462.91,167.14,462.91,165.26z M474.68,169.87l-0.01-6.12
		l-3.03,5.06h-0.77l-3.03-4.99v6.04h-1.64v-9.23h1.41l3.67,6.12l3.6-6.12h1.41l0.01,9.23H474.68z M486.27,163.92
		c0,2.03-1.5,3.29-3.93,3.29h-2.08v2.66h-1.71v-9.23h3.8C484.77,160.64,486.27,161.88,486.27,163.92z M484.54,163.92
		c0-1.16-0.78-1.83-2.28-1.83h-2.01v3.67h2.01C483.76,165.76,484.54,165.08,484.54,163.92z M494.65,168.43v1.44h-6.93v-9.23h6.74
		v1.44h-5.02v2.4h4.46v1.41h-4.46v2.55H494.65z M498.17,162.09h-3.06v-1.45h7.83v1.45h-3.06v7.78h-1.71V162.09z M510.91,168.43v1.44
		h-6.93v-9.23h6.74v1.44h-5.03v2.4h4.46v1.41h-4.46v2.55H510.91z M506.21,159.89h-1.36l1.77-1.81h1.5l1.77,1.81h-1.36l-1.16-0.98
		L506.21,159.89z M520.77,160.64v9.23h-1.41l-5.09-6.25v6.25h-1.7v-9.23h1.41l5.09,6.25v-6.25H520.77z M522.33,165.26
		c0-2.76,2.11-4.75,4.95-4.75c1.5,0,2.8,0.54,3.65,1.54l-1.11,1.04c-0.67-0.73-1.5-1.08-2.47-1.08c-1.91,0-3.3,1.35-3.3,3.25
		c0,1.9,1.38,3.24,3.3,3.24c0.96,0,1.79-0.36,2.47-1.09l1.11,1.05c-0.86,1-2.15,1.54-3.67,1.54
		C524.44,170,522.33,168.01,522.33,165.26z M532.32,160.64h1.71v9.23h-1.71V160.64z M542.25,167.73h-4.62l-0.91,2.14h-1.77
		l4.16-9.23h1.69l4.17,9.23h-1.79L542.25,167.73z M541.68,166.39l-1.74-4.04l-1.73,4.04H541.68z M556.19,168.43v1.44h-6.93v-9.23
		h6.74v1.44h-5.03v2.4h4.46v1.41h-4.46v2.55H556.19z M566.33,169.87l-0.01-6.12l-3.03,5.06h-0.77l-3.03-4.99v6.04h-1.64v-9.23h1.41
		l3.67,6.12l3.6-6.12h1.41l0.01,9.23H566.33z M578.39,167.37c0,1.58-1.24,2.51-3.61,2.51h-4.59v-9.23h4.33c2.22,0,3.4,0.94,3.4,2.4
		c0,0.95-0.48,1.65-1.19,2.03C577.72,165.39,578.39,166.16,578.39,167.37z M571.9,161.98v2.55h2.43c1.19,0,1.86-0.42,1.86-1.27
		c0-0.86-0.67-1.28-1.86-1.28H571.9z M576.66,167.19c0-0.92-0.7-1.33-1.99-1.33h-2.77v2.66h2.77
		C575.96,168.53,576.66,168.12,576.66,167.19z M586,169.87l-1.89-2.7c-0.12,0.01-0.24,0.01-0.36,0.01h-2.08v2.69h-1.72v-9.23h3.8
		c2.43,0,3.93,1.24,3.93,3.28c0,1.4-0.71,2.43-1.97,2.92l2.12,3.03H586z M583.68,162.09h-2v3.68h2c1.5,0,2.28-0.69,2.28-1.85
		S585.19,162.09,583.68,162.09z M595.33,167.73h-4.62l-0.91,2.14h-1.77l4.16-9.23h1.69l4.17,9.23h-1.79L595.33,167.73z
		 M594.77,166.39l-1.74-4.04l-1.73,4.04H594.77z M606.69,163.92c0,2.03-1.5,3.29-3.93,3.29h-2.08v2.66h-1.72v-9.23h3.8
		C605.19,160.64,606.69,161.88,606.69,163.92z M604.97,163.92c0-1.16-0.78-1.83-2.28-1.83h-2v3.67h2
		C604.19,165.76,604.97,165.08,604.97,163.92z M608.15,160.64h1.71v9.23h-1.71V160.64z M612.09,160.64h1.72v9.23h-1.72V160.64z
		 M371.67,184.27v1.44h-6.93v-9.23h6.74v1.44h-5.02v2.4h4.46v1.41h-4.46v2.55H371.67z M381.8,185.71l-0.01-6.12l-3.03,5.06h-0.77
		l-3.03-4.99v6.04h-1.64v-9.23h1.41l3.67,6.12l3.6-6.12h1.41l0.01,9.23H381.8z M390.91,177.93h-3.06v-1.45h7.83v1.45h-3.06v7.78
		h-1.71V177.93z M403.65,184.27v1.44h-6.93v-9.23h6.74v1.44h-5.02v2.4h4.46v1.41h-4.46v2.55H403.65z M404.6,181.09
		c0-2.76,2.11-4.75,4.95-4.75c1.5,0,2.8,0.54,3.65,1.54l-1.11,1.04c-0.67-0.73-1.5-1.08-2.47-1.08c-1.91,0-3.3,1.35-3.3,3.25
		c0,1.9,1.38,3.24,3.3,3.24c0.96,0,1.79-0.36,2.47-1.09l1.11,1.05c-0.86,1-2.15,1.54-3.67,1.54
		C406.71,185.84,404.6,183.85,404.6,181.09z M422.79,176.47v9.23h-1.41l-5.09-6.25v6.25h-1.7v-9.23H416l5.09,6.25v-6.25H422.79z
		 M424.35,181.09c0-2.73,2.11-4.75,4.97-4.75c2.86,0,4.97,2,4.97,4.75c0,2.74-2.11,4.75-4.97,4.75
		C426.46,185.84,424.35,183.82,424.35,181.09z M432.57,181.09c0-1.89-1.39-3.25-3.25-3.25c-1.86,0-3.24,1.36-3.24,3.25
		c0,1.89,1.38,3.24,3.24,3.24C431.19,184.34,432.57,182.98,432.57,181.09z M435.86,176.47h1.72v7.78h4.83v1.45h-6.54V176.47z
		 M442.67,181.09c0-2.73,2.11-4.75,4.97-4.75c2.86,0,4.97,2,4.97,4.75c0,2.74-2.11,4.75-4.97,4.75
		C444.78,185.84,442.67,183.82,442.67,181.09z M450.89,181.09c0-1.89-1.39-3.25-3.25-3.25c-1.86,0-3.24,1.36-3.24,3.25
		c0,1.89,1.38,3.24,3.24,3.24C449.5,184.34,450.89,182.98,450.89,181.09z M460.48,180.99h1.62v3.68c-0.96,0.78-2.31,1.17-3.61,1.17
		c-2.86,0-4.97-1.99-4.97-4.75c0-2.76,2.11-4.75,5-4.75c1.54,0,2.84,0.51,3.71,1.5l-1.08,1.06c-0.73-0.73-1.56-1.06-2.55-1.06
		c-1.97,0-3.35,1.33-3.35,3.25c0,1.87,1.38,3.24,3.34,3.24c0.66,0,1.31-0.13,1.9-0.48V180.99z M464.1,176.47h1.72v9.23h-1.72V176.47
		z M474.03,183.57h-4.62l-0.91,2.14h-1.77l4.16-9.23h1.69l4.17,9.23h-1.79L474.03,183.57z M473.47,182.23l-1.74-4.04l-1.73,4.04
		H473.47z M476.89,184.73l0.59-1.33c0.74,0.59,1.91,1.02,3.05,1.02c1.44,0,2.04-0.51,2.04-1.2c0-1.99-5.49-0.69-5.49-4.12
		c0-1.49,1.19-2.76,3.72-2.76c1.11,0,2.27,0.29,3.07,0.82l-0.54,1.33c-0.83-0.49-1.74-0.73-2.55-0.73c-1.42,0-2,0.55-2,1.25
		c0,1.96,5.47,0.69,5.47,4.08c0,1.48-1.2,2.74-3.73,2.74C479.09,185.84,477.65,185.39,476.89,184.73z M489.08,176.47h1.71v9.23
		h-1.71V176.47z M501.51,185.71l-0.01-6.12l-3.03,5.06h-0.77l-3.03-4.99v6.04h-1.64v-9.23h1.41l3.67,6.12l3.6-6.12h1.41l0.01,9.23
		H501.51z M512.29,184.27v1.44h-6.93v-9.23h6.74v1.44h-5.03v2.4h4.46v1.41h-4.46v2.55H512.29z M519.99,185.71l-1.89-2.7
		c-0.12,0.01-0.24,0.01-0.36,0.01h-2.08v2.69h-1.71v-9.23h3.8c2.43,0,3.93,1.24,3.93,3.28c0,1.4-0.71,2.43-1.97,2.92l2.12,3.03
		H519.99z M517.66,177.93h-2.01v3.68h2.01c1.5,0,2.28-0.69,2.28-1.85C519.95,178.6,519.17,177.93,517.66,177.93z M522.55,184.73
		l0.59-1.33c0.74,0.59,1.91,1.02,3.05,1.02c1.44,0,2.04-0.51,2.04-1.2c0-1.99-5.49-0.69-5.49-4.12c0-1.49,1.19-2.76,3.72-2.76
		c1.11,0,2.27,0.29,3.07,0.82l-0.54,1.33c-0.83-0.49-1.74-0.73-2.55-0.73c-1.42,0-2,0.55-2,1.25c0,1.96,5.47,0.69,5.47,4.08
		c0,1.48-1.2,2.74-3.73,2.74C524.75,185.84,523.31,185.39,522.55,184.73z M531.36,176.47h1.71v9.23h-1.71V176.47z M543.68,176.47
		l-4.02,9.23h-1.69l-4.04-9.23h1.86l3.07,7.12l3.1-7.12H543.68z M550.1,183.57h-4.62l-0.91,2.14h-1.77l4.16-9.23h1.69l4.17,9.23
		h-1.79L550.1,183.57z M549.53,182.23l-1.74-4.04l-1.73,4.04H549.53z M552.95,184.73l0.59-1.33c0.74,0.59,1.91,1.02,3.05,1.02
		c1.44,0,2.04-0.51,2.04-1.2c0-1.99-5.49-0.69-5.49-4.12c0-1.49,1.19-2.76,3.72-2.76c1.11,0,2.27,0.29,3.07,0.82l-0.54,1.33
		c-0.83-0.49-1.74-0.73-2.55-0.73c-1.42,0-2,0.55-2,1.25c0,1.96,5.47,0.69,5.47,4.08c0,1.48-1.2,2.74-3.73,2.74
		C555.15,185.84,553.72,185.39,552.95,184.73z"/>
</g>
</svg>
