<?xml version="1.0" encoding="utf-8"?>
<!-- Generator: Adobe Illustrator 27.2.0, SVG Export Plug-In . SVG Version: 6.00 Build 0)  -->
<svg version="1.1" id="Camada_1" xmlns="http://www.w3.org/2000/svg" xmlns:xlink="http://www.w3.org/1999/xlink" x="0px" y="0px"
	 viewBox="0 0 396.96 547.02" style="enable-background:new 0 0 396.96 547.02;" xml:space="preserve">
<style type="text/css">
	.st0{fill:#FFFFFF;}
	.st1{fill:url(#SVGID_1_);}
	.st2{fill:url(#SVGID_00000176023901013047165860000014279482588584208293_);}
	.st3{fill:url(#SVGID_00000060719381513091396370000017927453606133575822_);}
	.st4{fill:url(#SVGID_00000071532144740880373960000008905788524487130017_);}
	.st5{fill:url(#SVGID_00000149379339308118857080000007719382621115443869_);}
	.st6{fill:url(#SVGID_00000170252535220964566340000010315085666518146444_);}
	.st7{fill:url(#SVGID_00000113325140961536543580000002118238870862762903_);}
	.st8{fill:url(#SVGID_00000137851810435414337590000014355662683848845219_);}
	.st9{fill:url(#SVGID_00000148635994332847462370000009031103814204078212_);}
	.st10{fill:url(#SVGID_00000146499466362049666450000010737770313307229572_);}
	.st11{fill:#1FB2FB;}
	.st12{fill:#444444;}
	.st13{fill:url(#SVGID_00000177448729803695302450000007586345262571606707_);}
	.st14{fill:url(#SVGID_00000166670687049087085970000012902537999347114122_);}
	.st15{fill:url(#SVGID_00000104708107581231984440000017481023420352074887_);}
	.st16{fill:url(#SVGID_00000044158881795427144610000000943679762497735304_);}
	.st17{fill:url(#SVGID_00000103982659354531695790000001120194519799482242_);}
	.st18{fill:url(#SVGID_00000045601262384884050410000017425661959759841974_);}
	.st19{fill:url(#SVGID_00000000905862641352335310000007031267023235109042_);}
	.st20{fill:url(#SVGID_00000145055471720670355520000006896358252446282920_);}
	.st21{fill:url(#SVGID_00000007421154631794649480000010561076952120747185_);}
	.st22{fill:url(#SVGID_00000174592985574153448190000015808406974462629044_);}
	.st23{fill:url(#SVGID_00000141444238501271892300000001707012847778830235_);}
	.st24{fill:url(#SVGID_00000074424421792309962470000007294805691309932961_);}
	.st25{fill:url(#SVGID_00000145022501356868859170000005031892874065481151_);}
	.st26{fill:url(#SVGID_00000121258576506914908560000003925153789386829965_);}
	.st27{fill:url(#SVGID_00000123436858305432630280000006246091790134556072_);}
	.st28{fill:url(#SVGID_00000086689136694302936660000009684826489251202996_);}
	.st29{fill:url(#SVGID_00000055675381793784748770000017916359198650594440_);}
	.st30{fill:url(#SVGID_00000121997046070881768430000015043355854272161191_);}
	.st31{fill:url(#SVGID_00000159462034587024798540000010115005629625913278_);}
	.st32{fill:url(#SVGID_00000102542458673084275730000013386162939944732834_);}
	.st33{fill:url(#SVGID_00000039134501164777940940000012580689527879136166_);}
	.st34{fill:url(#SVGID_00000085230503391687984470000015152757046244160682_);}
	.st35{fill:url(#SVGID_00000082345899340137506500000012653862738884212131_);}
	.st36{fill:url(#SVGID_00000180326883634626384820000017436513595602843572_);}
	.st37{fill:url(#SVGID_00000165217547441856636660000016227233515845676961_);}
	.st38{fill:url(#SVGID_00000062171067588206798840000015953978293996973481_);}
	.st39{fill:url(#SVGID_00000098925158401914209800000009272946004855319955_);}
	.st40{fill:url(#SVGID_00000164506441311579221150000011168852275886969514_);}
	.st41{fill:url(#SVGID_00000145770000666728925410000012978196515225162914_);}
	.st42{fill:url(#SVGID_00000132773001080387446880000013254701697241629335_);}
	.st43{fill:url(#SVGID_00000092449119015423694770000004508589867060314805_);}
	.st44{fill:#5C056B;}
	.st45{fill:#BF1EE0;}
	.st46{fill:#1ACDFA;}
	.st47{fill:#278CFD;}
	.st48{fill:#A50DBF;}
	.st49{fill:url(#SVGID_00000111188409908723860970000000359726960397289097_);}
	.st50{fill:url(#SVGID_00000171697615358207233380000017205399774859179171_);}
	.st51{fill:url(#SVGID_00000155128747134441863690000000153516174501941939_);}
	.st52{fill:url(#SVGID_00000152964769614251445170000013147347223295938187_);}
	.st53{fill:url(#SVGID_00000041282335214895229800000012324674120698018995_);}
	.st54{fill:url(#SVGID_00000087378586433316535010000009206508714168737946_);}
	.st55{fill:url(#SVGID_00000033353389371644778000000017925547123412397746_);}
	.st56{fill:url(#SVGID_00000003785891220994803130000001906016876059141268_);}
	.st57{fill:url(#SVGID_00000168092898817358909640000006718690450509042850_);}
	.st58{fill:url(#SVGID_00000128475740170435607150000016698532833241343678_);}
	.st59{fill:url(#SVGID_00000097493474857085311870000004405296855135542197_);}
	.st60{fill:url(#SVGID_00000152950339412282785440000001617898551814334644_);}
	.st61{fill:url(#SVGID_00000114075721366889199320000018144875319985496228_);}
	.st62{fill:url(#SVGID_00000088120692642053081690000016037178712246394792_);}
	.st63{fill:url(#SVGID_00000070077111119624003460000016669685291747138720_);}
	.st64{fill:url(#SVGID_00000180353365949936038360000012621441893466152065_);}
	.st65{fill:url(#SVGID_00000097470567184139737670000004648524802486772906_);}
	.st66{fill:url(#SVGID_00000070807468216847993690000000643774639046259132_);}
	.st67{fill:url(#SVGID_00000114046443838597776360000013050091737038792110_);}
	.st68{fill:url(#SVGID_00000067914452700941027060000003364128289722411664_);}
	.st69{fill:url(#SVGID_00000110470191842903232960000004331190629520510099_);}
	.st70{fill:url(#SVGID_00000010303646662644900110000006013366881852818611_);}
	.st71{fill:url(#SVGID_00000014602009302180728010000012589995433135062403_);}
	.st72{fill:url(#SVGID_00000178921894281120288320000007853058633094992001_);}
	.st73{fill:url(#SVGID_00000174601591797979310500000016886248543555930503_);}
	.st74{fill:url(#SVGID_00000107586671249444471410000009250735028424948374_);}
	.st75{fill:url(#SVGID_00000150095262419914218390000000445387841964682926_);}
	.st76{fill:url(#SVGID_00000096043728224451102550000012632662935547691682_);}
	.st77{fill:url(#SVGID_00000066502194106916504000000000990179984881965239_);}
	.st78{fill:url(#SVGID_00000011748554701626606740000016009913033367126698_);}
	.st79{fill:url(#SVGID_00000160184110768592881030000000967392735732668303_);}
	.st80{fill:url(#SVGID_00000039837335138362370670000000446601178891552187_);}
</style>
<g>
	<g>
		<g>
			<linearGradient id="SVGID_1_" gradientUnits="userSpaceOnUse" x1="139.3672" y1="139.9754" x2="178.7127" y2="139.9754">
				<stop  offset="0" style="stop-color:#278CFD;stop-opacity:0"/>
				<stop  offset="0.276" style="stop-color:#278CFD"/>
				<stop  offset="1" style="stop-color:#A50DBF"/>
			</linearGradient>
			<path class="st1" d="M139.37,137.44h39.35c-2.57,1.13-4.81,2.89-6.52,5.07h-32.82V137.44z"/>
			
				<linearGradient id="SVGID_00000129904292136586531370000005378920305708336529_" gradientUnits="userSpaceOnUse" x1="192.4279" y1="138.3745" x2="208.859" y2="138.3745">
				<stop  offset="0" style="stop-color:#278CFD;stop-opacity:0"/>
				<stop  offset="0.276" style="stop-color:#278CFD"/>
				<stop  offset="1" style="stop-color:#A50DBF"/>
			</linearGradient>
			<path style="fill:url(#SVGID_00000129904292136586531370000005378920305708336529_);" d="M208.86,137.44v1.85
				c-1.71,0-3.38,0-4.96,0.01c-3.13,0.01-5.97,0.01-8.25,0.02c-1-0.73-2.07-1.36-3.22-1.87H208.86z"/>
		</g>
		
			<linearGradient id="SVGID_00000154408050205318886940000012084293082469074600_" gradientUnits="userSpaceOnUse" x1="118.1255" y1="158.9353" x2="170.7879" y2="158.9353">
			<stop  offset="0" style="stop-color:#278CFD;stop-opacity:0"/>
			<stop  offset="0.276" style="stop-color:#278CFD"/>
			<stop  offset="1" style="stop-color:#A50DBF"/>
		</linearGradient>
		<path style="fill:url(#SVGID_00000154408050205318886940000012084293082469074600_);" d="M168.88,156.4c0.36,1.81,1,3.51,1.9,5.07
			h-52.66v-5.07H168.88z"/>
		
			<linearGradient id="SVGID_00000001625010893137206360000007644941383886446466_" gradientUnits="userSpaceOnUse" x1="139.3672" y1="179.2093" x2="208.7953" y2="179.2093">
			<stop  offset="0" style="stop-color:#278CFD;stop-opacity:0"/>
			<stop  offset="0.276" style="stop-color:#278CFD"/>
			<stop  offset="1" style="stop-color:#A50DBF"/>
		</linearGradient>
		<path style="fill:url(#SVGID_00000001625010893137206360000007644941383886446466_);" d="M208.8,181.75h-69.43v-5.07h67.91
			C207.35,178.52,207.9,180.25,208.8,181.75z"/>
		
			<linearGradient id="SVGID_00000039844581503022150530000006554708525441113007_" gradientUnits="userSpaceOnUse" x1="139.3672" y1="219.0966" x2="208.8569" y2="219.0966">
			<stop  offset="0" style="stop-color:#278CFD;stop-opacity:0"/>
			<stop  offset="0.276" style="stop-color:#278CFD"/>
			<stop  offset="1" style="stop-color:#A50DBF"/>
		</linearGradient>
		
			<rect x="139.37" y="216.56" style="fill:url(#SVGID_00000039844581503022150530000006554708525441113007_);" width="69.49" height="5.07"/>
		
			<linearGradient id="SVGID_00000124121088846309871390000004069878375282338224_" gradientUnits="userSpaceOnUse" x1="118.1279" y1="198.1718" x2="208.8569" y2="198.1718">
			<stop  offset="0" style="stop-color:#278CFD;stop-opacity:0"/>
			<stop  offset="0.276" style="stop-color:#278CFD"/>
			<stop  offset="1" style="stop-color:#A50DBF"/>
		</linearGradient>
		
			<rect x="118.13" y="195.64" style="fill:url(#SVGID_00000124121088846309871390000004069878375282338224_);" width="90.73" height="5.07"/>
		
			<linearGradient id="SVGID_00000031921584305044261620000002876121342521816253_" gradientUnits="userSpaceOnUse" x1="167.4985" y1="120.1232" x2="173.6073" y2="120.1232">
			<stop  offset="0" style="stop-color:#1ACDFA"/>
			<stop  offset="1" style="stop-color:#2884FD"/>
		</linearGradient>
		<path style="fill:url(#SVGID_00000031921584305044261620000002876121342521816253_);" d="M173.61,120c-1.96,0.02-4,0.11-6.11,0.28
			C167.54,120.23,169.97,119.88,173.61,120z"/>
		
			<linearGradient id="SVGID_00000066496371946784916150000011289135487261596325_" gradientUnits="userSpaceOnUse" x1="195.0682" y1="113.5045" x2="195.0682" y2="147.3606">
			<stop  offset="0" style="stop-color:#A50DBF"/>
			<stop  offset="0.1406" style="stop-color:#9E14C3"/>
			<stop  offset="0.349" style="stop-color:#8A28CC"/>
			<stop  offset="0.5997" style="stop-color:#6949DC"/>
			<stop  offset="0.8809" style="stop-color:#3C77F3"/>
			<stop  offset="1" style="stop-color:#278CFD"/>
		</linearGradient>
		<path style="fill:url(#SVGID_00000066496371946784916150000011289135487261596325_);" d="M173.62,120
			c23.05-0.22,35.93,9.49,42.89,19.27c-2.58,0.01-5.17,0.01-7.65,0.02c-1.71,0-3.38,0-4.96,0.01c-0.25-0.64-0.53-1.26-0.81-1.86
			C196.24,123.02,181.86,120.28,173.62,120z"/>
		
			<linearGradient id="SVGID_00000152257308847685175220000013009057544539421108_" gradientUnits="userSpaceOnUse" x1="207.532" y1="156.2961" x2="207.532" y2="257.0247">
			<stop  offset="0.1667" style="stop-color:#A50DBF"/>
			<stop  offset="0.2839" style="stop-color:#9E14C3"/>
			<stop  offset="0.4576" style="stop-color:#8A28CC"/>
			<stop  offset="0.6665" style="stop-color:#6949DC"/>
			<stop  offset="0.9008" style="stop-color:#3C77F3"/>
			<stop  offset="1" style="stop-color:#278CFD"/>
		</linearGradient>
		<path style="fill:url(#SVGID_00000152257308847685175220000013009057544539421108_);" d="M241.7,200.32
			c-0.25,0.85-3.5,3.07-5.95,4.35c-3.74,1.72-2.76,4.48-2.39,5.34c3.62,3.98,2.21,5.46,1.53,6.13c-1.53,0.49-1.96,2.02-1.71,3
			c1.66,1.96,1.53,3.55-0.55,5.46c-2.09,1.96-1.23,3.37-0.8,5.09c5.26,11.76-1.97,14.22-5.89,14.46
			c-31.17,0.62-43.1,12.18-46.06,15.75c-0.44,0.53-1.26,0.58-1.73,0.08c-12.91-13.8,1.87-27.3,13.54-44.08
			c4.09-5.38,7.15-10.43,9.42-15.2c0.83-1.72,1.55-3.41,2.17-5.07c1.84-4.85,2.91-9.44,3.5-13.89c0.22-1.71,0.38-3.4,0.49-5.07
			c0-0.09,0.01-0.17,0.02-0.25c-0.01,0.08,0,0.17,0,0.25c0.07,1.85,0.61,3.58,1.51,5.07c1.86,3.11,5.27,5.2,9.16,5.2h11.98
			c3.69,5.25,8.09,7.52,10.23,9.14C242.43,198.48,241.94,199.71,241.7,200.32z"/>
		<path class="st12" d="M244.66,147.17c-0.99-1.96-3.03-3.15-5.22-3.16c-4.24-0.02-11.92-0.02-19.98-0.01
			c-4.75,0-9.64,0.01-14.03,0.02c-4.58,0.01-8.62,0.02-11.44,0.02c-0.61-0.58-1.29-1.09-2.02-1.54c-1.86-1.14-4.05-1.79-6.39-1.79
			c-2.34,0-4.53,0.65-6.4,1.79c-3.54,2.17-5.92,6.07-5.92,10.52c0,1.17,0.16,2.3,0.48,3.37c0.54,1.92,1.55,3.66,2.88,5.07
			c2.25,2.39,5.42,3.88,8.95,3.88c3.47,0,6.62-1.45,8.86-3.78h11.6c0.38,0,0.75,0.03,1.11,0.1c2.76,0.52,4.85,2.94,4.85,5.85v8.75
			c0,3.29,2.67,5.95,5.96,5.95h20.96c2.48,0,4.68-1.52,5.57-3.83C246.93,172.02,250.56,158.82,244.66,147.17z M193.9,156.4
			c-0.95,2.35-2.87,4.2-5.26,5.07c-0.96,0.35-1.98,0.54-3.06,0.54c-1.08,0-2.1-0.19-3.06-0.54c-2.39-0.87-4.31-2.72-5.26-5.07
			c-0.43-1.04-0.66-2.18-0.66-3.37c0-4.95,4.02-8.98,8.98-8.98c4.95,0,8.98,4.02,8.98,8.98C194.56,154.22,194.33,155.36,193.9,156.4
			z M189.77,152.68c0,2.45-1.99,4.44-4.44,4.44s-4.44-1.99-4.44-4.44c0-2.45,1.99-4.44,4.44-4.44S189.77,150.23,189.77,152.68z"/>
	</g>
	<g>
		<path class="st12" d="M123.85,305.76v32.13H91.15c-8.91,0-16.57-3.13-22.99-9.38c-6.42-6.25-9.62-13.84-9.62-22.75
			c0-8.91,3.21-16.52,9.62-22.83c6.41-6.31,14.08-9.46,22.99-9.46c8.91,0,16.59,3.15,23.03,9.46
			C120.62,289.24,123.85,296.85,123.85,305.76z M110.16,325.09v-19.33c0-5.31-1.84-9.89-5.53-13.73c-3.69-3.84-8.19-5.76-13.51-5.76
			c-5.33,0-9.83,1.92-13.52,5.76c-3.69,3.84-5.53,8.41-5.53,13.73c0,5.31,1.84,9.86,5.53,13.65c3.69,3.78,8.19,5.68,13.52,5.68
			H110.16z"/>
		<path class="st12" d="M147.08,337.89h-13.53v-64.42c3.7,0,6.88,1.33,9.54,3.99c2.66,2.66,3.99,5.84,3.99,9.54v12.96h17.88
			c5.26,0,9.74-1.93,13.45-5.8c3.7-3.86,5.56-8.43,5.56-13.69v-6.04h13.53v6.04c0,5.15-1.17,10-3.5,14.53
			c-2.33,4.54-5.57,8.33-9.7,11.39c4.13,3.06,7.37,6.86,9.7,11.39c2.34,4.54,3.5,9.35,3.5,14.45v5.64h-13.53v-5.64
			c0-5.26-1.85-9.82-5.56-13.69c-3.7-3.86-8.19-5.8-13.45-5.8h-17.88V337.89z"/>
		
			<linearGradient id="SVGID_00000129888787239967022490000011290100812623300234_" gradientUnits="userSpaceOnUse" x1="266.0856" y1="255.9219" x2="275.892" y2="329.4699">
			<stop  offset="0" style="stop-color:#A50DBF"/>
			<stop  offset="0.1402" style="stop-color:#9E14C3"/>
			<stop  offset="0.3481" style="stop-color:#8A28CC"/>
			<stop  offset="0.5981" style="stop-color:#6949DC"/>
			<stop  offset="0.8785" style="stop-color:#3C77F2"/>
			<stop  offset="0.943" style="stop-color:#3182F8"/>
			<stop  offset="1" style="stop-color:#278CFD"/>
		</linearGradient>
		<path style="fill:url(#SVGID_00000129888787239967022490000011290100812623300234_);" d="M221.3,288.86
			c-3.73,3.84-5.6,8.41-5.6,13.73s1.86,9.86,5.6,13.65c3.73,3.78,8.25,5.68,13.57,5.68h6.2c3.54,0,6.56,1.25,9.06,3.74
			c2.5,2.5,3.74,5.52,3.74,9.06h-19c-8.91,0-16.56-3.13-22.95-9.38c-6.39-6.25-9.58-13.84-9.58-22.75c0-8.91,3.19-16.52,9.58-22.83
			c6.39-6.31,14.04-9.46,22.95-9.46h19c0,3.54-1.25,6.56-3.74,9.06s-5.52,3.74-9.06,3.74h-6.2
			C229.55,283.11,225.03,285.03,221.3,288.86z M258.14,270.3v50.89c0,3.7,1.33,6.88,3.99,9.54c2.66,2.66,5.84,3.99,9.54,3.99v-50.89
			c0-3.7-1.33-6.88-3.99-9.54C265.02,271.63,261.84,270.3,258.14,270.3z M273.52,271.27c0,3.54,1.25,6.56,3.74,9.06
			c2.5,2.5,5.52,3.74,9.06,3.74h12.88v37.12c0,3.7,1.33,6.88,3.99,9.54c2.66,2.66,5.84,3.99,9.54,3.99v-50.65h12.88
			c3.54,0,6.56-1.25,9.06-3.74s3.74-5.52,3.74-9.06H273.52z"/>
	</g>
	
		<linearGradient id="SVGID_00000078738177639111404890000009111252781824977037_" gradientUnits="userSpaceOnUse" x1="198.4798" y1="353.2045" x2="198.4798" y2="379.1993">
		<stop  offset="0" style="stop-color:#A50DBF"/>
		<stop  offset="0.1402" style="stop-color:#9E14C3"/>
		<stop  offset="0.3481" style="stop-color:#8A28CC"/>
		<stop  offset="0.5981" style="stop-color:#6949DC"/>
		<stop  offset="0.8785" style="stop-color:#3C77F2"/>
		<stop  offset="0.943" style="stop-color:#3182F8"/>
		<stop  offset="1" style="stop-color:#278CFD"/>
	</linearGradient>
	<path style="fill:url(#SVGID_00000078738177639111404890000009111252781824977037_);" d="M73.25,358.21c0-2.76,2.11-4.75,4.95-4.75
		c1.5,0,2.8,0.54,3.65,1.54l-1.11,1.04c-0.67-0.73-1.5-1.08-2.47-1.08c-1.91,0-3.3,1.35-3.3,3.25c0,1.9,1.38,3.24,3.3,3.24
		c0.96,0,1.79-0.36,2.47-1.09l1.11,1.05c-0.86,1-2.15,1.54-3.67,1.54C75.36,362.96,73.25,360.97,73.25,358.21z M90.16,361.39v1.44
		h-6.93v-9.23h6.74v1.44h-5.02v2.4h4.46v1.41h-4.46v2.55H90.16z M100.02,353.59v9.23h-1.41l-5.09-6.25v6.25h-1.7v-9.23h1.41
		l5.09,6.25v-6.25H100.02z M104.11,355.04h-3.06v-1.45h7.83v1.45h-3.06v7.78h-1.71V355.04z M115.96,362.83l-1.89-2.7
		c-0.12,0.01-0.24,0.01-0.36,0.01h-2.08v2.69h-1.72v-9.23h3.8c2.43,0,3.93,1.24,3.93,3.28c0,1.4-0.71,2.43-1.97,2.92l2.12,3.03
		H115.96z M113.64,355.04h-2v3.68h2c1.5,0,2.28-0.69,2.28-1.85C115.92,355.72,115.14,355.04,113.64,355.04z M118.64,358.21
		c0-2.73,2.11-4.75,4.97-4.75c2.86,0,4.97,2,4.97,4.75c0,2.74-2.11,4.75-4.97,4.75C120.76,362.96,118.64,360.94,118.64,358.21z
		 M126.86,358.21c0-1.89-1.39-3.25-3.25-3.25s-3.24,1.36-3.24,3.25c0,1.89,1.38,3.24,3.24,3.24S126.86,360.1,126.86,358.21z
		 M133.53,353.59h4.04c2.99,0,5.04,1.85,5.04,4.62c0,2.77-2.04,4.62-5.04,4.62h-4.04V353.59z M137.49,361.38
		c2.06,0,3.39-1.25,3.39-3.17c0-1.91-1.33-3.17-3.39-3.17h-2.24v6.33H137.49z M151.09,361.39v1.44h-6.93v-9.23h6.74v1.44h-5.03v2.4
		h4.46v1.41h-4.46v2.55H151.09z M155.46,358.21c0-2.76,2.11-4.75,4.95-4.75c1.5,0,2.8,0.54,3.65,1.54l-1.11,1.04
		c-0.67-0.73-1.5-1.08-2.47-1.08c-1.91,0-3.3,1.35-3.3,3.25c0,1.9,1.38,3.24,3.3,3.24c0.96,0,1.79-0.36,2.47-1.09l1.11,1.05
		c-0.86,1-2.15,1.54-3.67,1.54C157.57,362.96,155.46,360.97,155.46,358.21z M164.59,358.21c0-2.73,2.11-4.75,4.97-4.75
		c2.86,0,4.97,2,4.97,4.75c0,2.74-2.11,4.75-4.97,4.75C166.71,362.96,164.59,360.94,164.59,358.21z M172.81,358.21
		c0-1.89-1.39-3.25-3.25-3.25s-3.24,1.36-3.24,3.25c0,1.89,1.38,3.24,3.24,3.24S172.81,360.1,172.81,358.21z M184.58,362.83
		l-0.01-6.12l-3.03,5.06h-0.77l-3.03-4.99v6.04h-1.64v-9.23h1.41l3.67,6.12l3.6-6.12h1.41l0.01,9.23H184.58z M196.17,356.88
		c0,2.03-1.5,3.29-3.93,3.29h-2.08v2.66h-1.71v-9.23h3.8C194.67,353.59,196.17,354.83,196.17,356.88z M194.44,356.88
		c0-1.16-0.78-1.83-2.28-1.83h-2.01v3.67h2.01C193.66,358.71,194.44,358.04,194.44,356.88z M204.55,361.39v1.44h-6.93v-9.23h6.74
		v1.44h-5.02v2.4h4.46v1.41h-4.46v2.55H204.55z M208.08,355.04h-3.06v-1.45h7.83v1.45h-3.06v7.78h-1.71V355.04z M220.81,361.39v1.44
		h-6.93v-9.23h6.74v1.44h-5.03v2.4h4.46v1.41h-4.46v2.55H220.81z M216.11,352.84h-1.36l1.77-1.81h1.5l1.77,1.81h-1.36l-1.16-0.98
		L216.11,352.84z M230.67,353.59v9.23h-1.41l-5.09-6.25v6.25h-1.7v-9.23h1.41l5.09,6.25v-6.25H230.67z M232.23,358.21
		c0-2.76,2.11-4.75,4.95-4.75c1.5,0,2.8,0.54,3.65,1.54l-1.11,1.04c-0.67-0.73-1.5-1.08-2.47-1.08c-1.91,0-3.3,1.35-3.3,3.25
		c0,1.9,1.38,3.24,3.3,3.24c0.96,0,1.79-0.36,2.47-1.09l1.11,1.05c-0.86,1-2.15,1.54-3.67,1.54
		C234.34,362.96,232.23,360.97,232.23,358.21z M242.22,353.59h1.71v9.23h-1.71V353.59z M252.15,360.69h-4.62l-0.91,2.14h-1.77
		l4.16-9.23h1.69l4.17,9.23h-1.79L252.15,360.69z M251.58,359.34l-1.74-4.04l-1.73,4.04H251.58z M266.09,361.39v1.44h-6.93v-9.23
		h6.74v1.44h-5.03v2.4h4.46v1.41h-4.46v2.55H266.09z M276.23,362.83l-0.01-6.12l-3.03,5.06h-0.77l-3.03-4.99v6.04h-1.64v-9.23h1.41
		l3.67,6.12l3.6-6.12h1.41l0.01,9.23H276.23z M288.29,360.32c0,1.58-1.24,2.51-3.61,2.51h-4.59v-9.23h4.33c2.22,0,3.4,0.94,3.4,2.4
		c0,0.95-0.48,1.65-1.19,2.03C287.62,358.34,288.29,359.12,288.29,360.32z M281.8,354.94v2.55h2.43c1.19,0,1.86-0.42,1.86-1.27
		c0-0.86-0.67-1.28-1.86-1.28H281.8z M286.56,360.15c0-0.92-0.7-1.33-1.99-1.33h-2.77v2.66h2.77
		C285.86,361.48,286.56,361.07,286.56,360.15z M295.9,362.83l-1.89-2.7c-0.12,0.01-0.24,0.01-0.36,0.01h-2.08v2.69h-1.72v-9.23h3.8
		c2.43,0,3.93,1.24,3.93,3.28c0,1.4-0.71,2.43-1.97,2.92l2.12,3.03H295.9z M293.58,355.04h-2v3.68h2c1.5,0,2.28-0.69,2.28-1.85
		C295.86,355.72,295.09,355.04,293.58,355.04z M305.23,360.69h-4.62l-0.91,2.14h-1.77l4.16-9.23h1.69l4.17,9.23h-1.79L305.23,360.69
		z M304.67,359.34l-1.74-4.04l-1.73,4.04H304.67z M316.59,356.88c0,2.03-1.5,3.29-3.93,3.29h-2.08v2.66h-1.72v-9.23h3.8
		C315.09,353.59,316.59,354.83,316.59,356.88z M314.87,356.88c0-1.16-0.78-1.83-2.28-1.83h-2v3.67h2
		C314.09,358.71,314.87,358.04,314.87,356.88z M318.05,353.59h1.71v9.23h-1.71V353.59z M321.99,353.59h1.72v9.23h-1.72V353.59z
		 M108.12,377.22v1.44h-6.93v-9.23h6.74v1.44h-5.02v2.4h4.46v1.41h-4.46v2.55H108.12z M118.25,378.66l-0.01-6.12l-3.03,5.06h-0.77
		l-3.03-4.99v6.04h-1.64v-9.23h1.41l3.67,6.12l3.6-6.12h1.41l0.01,9.23H118.25z M127.36,370.88h-3.06v-1.45h7.83v1.45h-3.06v7.78
		h-1.71V370.88z M140.09,377.22v1.44h-6.93v-9.23h6.74v1.44h-5.02v2.4h4.46v1.41h-4.46v2.55H140.09z M141.05,374.05
		c0-2.76,2.11-4.75,4.95-4.75c1.5,0,2.8,0.54,3.65,1.54l-1.11,1.04c-0.67-0.73-1.5-1.08-2.47-1.08c-1.91,0-3.3,1.35-3.3,3.25
		c0,1.9,1.38,3.24,3.3,3.24c0.96,0,1.79-0.36,2.47-1.09l1.11,1.05c-0.86,1-2.15,1.54-3.67,1.54
		C143.16,378.79,141.05,376.8,141.05,374.05z M159.24,369.43v9.23h-1.41l-5.09-6.25v6.25h-1.7v-9.23h1.41l5.09,6.25v-6.25H159.24z
		 M160.8,374.05c0-2.73,2.11-4.75,4.97-4.75c2.86,0,4.97,2,4.97,4.75c0,2.74-2.11,4.75-4.97,4.75
		C162.91,378.79,160.8,376.78,160.8,374.05z M169.02,374.05c0-1.89-1.39-3.25-3.25-3.25s-3.24,1.36-3.24,3.25
		c0,1.89,1.38,3.24,3.24,3.24S169.02,375.93,169.02,374.05z M172.31,369.43h1.72v7.78h4.83v1.45h-6.54V369.43z M179.12,374.05
		c0-2.73,2.11-4.75,4.97-4.75c2.86,0,4.97,2,4.97,4.75c0,2.74-2.11,4.75-4.97,4.75C181.23,378.79,179.12,376.78,179.12,374.05z
		 M187.33,374.05c0-1.89-1.39-3.25-3.25-3.25s-3.24,1.36-3.24,3.25c0,1.89,1.38,3.24,3.24,3.24S187.33,375.93,187.33,374.05z
		 M196.93,373.94h1.62v3.68c-0.96,0.78-2.31,1.17-3.61,1.17c-2.86,0-4.97-1.99-4.97-4.75c0-2.76,2.11-4.75,5-4.75
		c1.54,0,2.84,0.51,3.71,1.5l-1.08,1.06c-0.73-0.73-1.56-1.06-2.55-1.06c-1.97,0-3.35,1.33-3.35,3.25c0,1.87,1.38,3.24,3.34,3.24
		c0.66,0,1.31-0.13,1.9-0.48V373.94z M200.55,369.43h1.72v9.23h-1.72V369.43z M210.48,376.52h-4.62l-0.91,2.14h-1.77l4.16-9.23h1.69
		l4.17,9.23h-1.79L210.48,376.52z M209.91,375.18l-1.74-4.04l-1.73,4.04H209.91z M213.34,377.69l0.59-1.33
		c0.74,0.59,1.91,1.02,3.05,1.02c1.44,0,2.04-0.51,2.04-1.2c0-1.99-5.49-0.69-5.49-4.12c0-1.49,1.19-2.76,3.72-2.76
		c1.11,0,2.27,0.29,3.07,0.82l-0.54,1.33c-0.83-0.49-1.74-0.73-2.55-0.73c-1.42,0-2,0.55-2,1.25c0,1.96,5.47,0.69,5.47,4.08
		c0,1.48-1.2,2.74-3.73,2.74C215.54,378.79,214.1,378.35,213.34,377.69z M225.53,369.43h1.71v9.23h-1.71V369.43z M237.95,378.66
		l-0.01-6.12l-3.03,5.06h-0.77l-3.03-4.99v6.04h-1.64v-9.23h1.41l3.67,6.12l3.6-6.12h1.41l0.01,9.23H237.95z M248.74,377.22v1.44
		h-6.93v-9.23h6.74v1.44h-5.03v2.4h4.46v1.41h-4.46v2.55H248.74z M256.43,378.66l-1.89-2.7c-0.12,0.01-0.24,0.01-0.36,0.01h-2.08
		v2.69h-1.71v-9.23h3.8c2.43,0,3.93,1.24,3.93,3.28c0,1.4-0.71,2.43-1.97,2.92l2.12,3.03H256.43z M254.11,370.88h-2.01v3.68h2.01
		c1.5,0,2.28-0.69,2.28-1.85S255.61,370.88,254.11,370.88z M258.99,377.69l0.59-1.33c0.74,0.59,1.91,1.02,3.05,1.02
		c1.44,0,2.04-0.51,2.04-1.2c0-1.99-5.49-0.69-5.49-4.12c0-1.49,1.19-2.76,3.72-2.76c1.11,0,2.27,0.29,3.07,0.82l-0.54,1.33
		c-0.83-0.49-1.74-0.73-2.55-0.73c-1.42,0-2,0.55-2,1.25c0,1.96,5.47,0.69,5.47,4.08c0,1.48-1.2,2.74-3.73,2.74
		C261.2,378.79,259.76,378.35,258.99,377.69z M267.81,369.43h1.71v9.23h-1.71V369.43z M280.13,369.43l-4.02,9.23h-1.69l-4.04-9.23
		h1.86l3.07,7.12l3.1-7.12H280.13z M286.55,376.52h-4.62l-0.91,2.14h-1.77l4.16-9.23h1.69l4.17,9.23h-1.79L286.55,376.52z
		 M285.98,375.18l-1.74-4.04l-1.73,4.04H285.98z M289.4,377.69l0.59-1.33c0.74,0.59,1.91,1.02,3.05,1.02c1.44,0,2.04-0.51,2.04-1.2
		c0-1.99-5.49-0.69-5.49-4.12c0-1.49,1.19-2.76,3.72-2.76c1.11,0,2.27,0.29,3.07,0.82l-0.54,1.33c-0.83-0.49-1.74-0.73-2.55-0.73
		c-1.42,0-2,0.55-2,1.25c0,1.96,5.47,0.69,5.47,4.08c0,1.48-1.2,2.74-3.73,2.74C291.6,378.79,290.16,378.35,289.4,377.69z"/>
</g>
</svg>
